<?xml version="1.0" encoding="UTF-8"?>
<svg version="1.1" xmlns="http://www.w3.org/2000/svg" width="500" height="500">
<path d="M0 0 C165 0 330 0 500 0 C500 165 500 330 500 500 C335 500 170 500 0 500 C0 335 0 170 0 0 Z " fill="#000000" transform="translate(0,0)"/>
<path d="M0 0 C2.97 0 5.94 0 9 0 C11.89887689 23.30985976 14.53049472 46.64094165 17 70 C20.86652184 62.26695631 20.28484515 50.31253216 21.10473633 41.71630859 C22.46981167 27.78285499 24.28146575 13.89336128 26 0 C29.3 0 32.6 0 36 0 C36 37.29 36 74.58 36 113 C33.03 113 30.06 113 27 113 C26.67 98.48 26.34 83.96 26 69 C24.72661106 81.23538539 24.72661106 81.23538539 23.45727539 93.47119141 C23.2958815 95.01466369 23.13435085 96.55812169 22.97265625 98.1015625 C22.89140503 98.89135498 22.81015381 99.68114746 22.72644043 100.49487305 C22.28471293 104.69358839 21.74732024 108.84175896 21 113 C18.69 113 16.38 113 14 113 C13.44771326 108.19867473 12.8964022 103.39723875 12.34594727 98.59570312 C12.15903296 96.96644149 11.97186425 95.33720901 11.78442383 93.70800781 C11.51314471 91.349688 11.24281821 88.99126052 10.97265625 86.6328125 C10.89032242 85.91884308 10.80798859 85.20487366 10.72315979 84.4692688 C10.09607238 78.982994 9.5496251 73.496251 9 68 C8.67 82.85 8.34 97.7 8 113 C5.36 113 2.72 113 0 113 C0 75.71 0 38.42 0 0 Z " fill="#D83714" transform="translate(130,175)"/>
<path d="M0 0 C5.17567971 1.65621751 7.25847634 4.27029489 9.94783211 8.7442646 C11.67157206 12.43977865 11.67586187 15.8214341 11.59936523 19.84350586 C11.60330795 20.68853165 11.60725067 21.53355743 11.61131287 22.40419006 C11.61798117 25.17502724 11.58894614 27.94418498 11.55859375 30.71484375 C11.55433798 32.65482769 11.55201444 34.59481675 11.55152893 36.5348053 C11.54537766 40.59236893 11.52274896 44.64937751 11.48706055 48.70678711 C11.44182022 53.88929545 11.4270348 59.07130163 11.42332363 64.25398922 C11.41887888 68.25790795 11.40354612 72.26172293 11.3844471 76.26559639 C11.3756118 78.17562577 11.36885928 80.08566603 11.36428642 81.99571037 C11.35516843 84.67302581 11.33271233 87.34990453 11.30639648 90.02709961 C11.30539948 91.19400833 11.30539948 91.19400833 11.30438232 92.38449097 C11.21693493 98.88274619 10.64955627 105.32658122 7.1875 110.9375 C3.96597092 113.9749417 1.41286712 114.81963399 -2.9375 115.375 C-6.98632927 114.87922499 -8.89325874 113.63397629 -12 111 C-15.89277813 105.43581793 -16.58183493 101.37256017 -16.51757812 94.67163086 C-16.5245874 93.7634108 -16.53159668 92.85519073 -16.53881836 91.91944885 C-16.55634249 88.93426429 -16.54479634 85.950037 -16.53125 82.96484375 C-16.53394628 80.88171711 -16.53782984 78.7985917 -16.54284668 76.71546936 C-16.54873397 72.35698422 -16.54020251 67.99882771 -16.52148438 63.64038086 C-16.49868132 58.05943402 -16.51183167 52.4792561 -16.53577423 46.89833736 C-16.55024076 42.59943364 -16.54562249 38.3007117 -16.53526306 34.00180244 C-16.53259889 31.94414745 -16.53585463 29.88647584 -16.54518127 27.82884026 C-16.55536234 24.95177463 -16.53982437 22.07594815 -16.51757812 19.19897461 C-16.52567505 18.35257416 -16.53377197 17.50617371 -16.54211426 16.63412476 C-16.44740664 10.00869244 -14.34620829 6.40961933 -9.6875 1.625 C-6.15557626 -0.51058179 -4.07292997 -0.50018438 0 0 Z " fill="#D83714" transform="translate(185,174)"/>
<path d="M0 0 C2.97 0 5.94 0 9 0 C11.23396493 27.96398457 12.54795082 55.98705486 14 84 C15.61772485 67.01785289 16.68263645 50.03471629 17.5625 33 C17.75067669 29.37463958 17.94006199 25.74936271 18.13328552 22.12426758 C18.2520621 19.89509613 18.36800769 17.66577135 18.48060608 15.4362793 C18.75735906 10.23350029 19.15104332 5.14178566 20 0 C22.97 0 25.94 0 29 0 C28.59157814 15.56228104 27.68018841 31.02509264 26.43060303 46.53839111 C25.22889554 61.49541741 24.23313666 76.46063975 23.3125 91.4375 C23.24597229 92.51880188 23.17944458 93.60010376 23.11090088 94.71417236 C22.73672843 100.80921714 22.36660258 106.90449543 22 113 C17.05 113 12.1 113 7 113 C5.20250572 95.97129667 4.09733492 78.91104785 3.06671143 61.82269287 C2.85102958 58.25859371 2.63142325 54.69473657 2.41210938 51.13085938 C2.08057972 45.73891925 1.75185122 40.34681857 1.42504883 34.95458984 C1.17695804 30.8710765 0.92453715 26.78797817 0.65893555 22.70556641 C0.61100357 21.96522659 0.56307159 21.22488678 0.51368713 20.46211243 C0.39635385 18.66449321 0.27669755 16.86702597 0.15673828 15.06958008 C-0.09974986 10.04648756 -0.08570002 5.02773427 0 0 Z " fill="#D73714" transform="translate(199,175)"/>
<path d="M0 0 C2.64 0 5.28 0 8 0 C8.16604736 0.93682617 8.16604736 0.93682617 8.33544922 1.89257812 C8.84576425 4.76223728 9.36035265 7.63111478 9.875 10.5 C10.04902344 11.48226562 10.22304688 12.46453125 10.40234375 13.4765625 C10.57636719 14.44335938 10.75039063 15.41015625 10.9296875 16.40625 C11.16534424 17.72592773 11.16534424 17.72592773 11.40576172 19.07226562 C12.15045459 22.74127009 13.09199115 26.3679646 14 30 C15.65 20.43 17.3 10.86 19 1 C21.64 1 24.28 1 27 1 C26.62407275 7.95766964 25.58063895 14.74129839 24.3359375 21.5859375 C24.10091522 22.88957245 24.10091522 22.88957245 23.86114502 24.21954346 C23.2041565 27.85042575 22.54355821 31.48039408 21.86035156 35.10644531 C19.88390263 45.64877081 18.24619997 55.29362731 20 66 C20.11762695 66.72882385 20.23525391 67.45764771 20.35644531 68.20855713 C21.34810341 74.27833107 22.44616183 80.32711577 23.5625 86.375 C24.21669258 89.92323871 24.86261352 93.47284753 25.50390625 97.0234375 C25.65388565 97.82147797 25.80386505 98.61951843 25.95838928 99.44174194 C26.78909371 104.04274037 27.14876105 108.32431972 27 113 C24.36 113 21.72 113 19 113 C17.14305274 103.35625389 15.41475301 93.72018539 14 84 C11.67813922 93.61678507 9.76154592 103.26777114 8 113 C5.36 113 2.72 113 0 113 C0.47003722 106.56512425 1.43473995 100.31645552 2.62890625 93.984375 C2.78322113 93.16118774 2.93753601 92.33800049 3.0965271 91.48986816 C3.74429707 88.04811881 4.39583552 84.60724745 5.06420898 81.16943359 C8.59839975 62.91263508 7.9075766 47.41369107 4.5625 29.1875 C4.07033326 26.45020075 3.58161924 23.71232276 3.09544373 20.97395325 C2.79465961 19.28577471 2.48998988 17.59828161 2.18055725 15.91166687 C1.22418335 10.62020343 0.54411787 5.35010321 0 0 Z " fill="#D63614" transform="translate(343,175)"/>
<path d="M0 0 C5.94 0 11.88 0 18 0 C18 2.97 18 5.94 18 9 C15.03 9 12.06 9 9 9 C9.33 22.86 9.66 36.72 10 51 C12.64 51.33 15.28 51.66 18 52 C18 54.97 18 57.94 18 61 C15.03 61 12.06 61 9 61 C9 75.19 9 89.38 9 104 C11.97 104 14.94 104 18 104 C18 106.97 18 109.94 18 113 C12.06 113 6.12 113 0 113 C0 75.71 0 38.42 0 0 Z " fill="#D83714" transform="translate(243,175)"/>
<path d="M0 0 C5.61 0 11.22 0 17 0 C17 2.97 17 5.94 17 9 C14.36 9 11.72 9 9 9 C9 23.19 9 37.38 9 52 C11.64 52 14.28 52 17 52 C17 54.97 17 57.94 17 61 C14.36 61 11.72 61 9 61 C9 74.86 9 88.72 9 103 C11.64 103 14.28 103 17 103 C17 106.3 17 109.6 17 113 C11.39 113 5.78 113 0 113 C0 75.71 0 38.42 0 0 Z " fill="#D93714" transform="translate(322,175)"/>
<path d="M0 0 C5.94 0 11.88 0 18 0 C18 2.97 18 5.94 18 9 C15.03 9 12.06 9 9 9 C9 22.86 9 36.72 9 51 C11.97 51 14.94 51 18 51 C18 54.3 18 57.6 18 61 C15.03 61 12.06 61 9 61 C9 78.16 9 95.32 9 113 C6.03 113 3.06 113 0 113 C0 75.71 0 38.42 0 0 Z " fill="#D93714" transform="translate(280,175)"/>
<path d="M0 0 C2.97 0 5.94 0 9 0 C9 34.32 9 68.64 9 104 C11.64 104 14.28 104 17 104 C17 106.97 17 109.94 17 113 C11.39 113 5.78 113 0 113 C0 75.71 0 38.42 0 0 Z " fill="#D53614" transform="translate(301,175)"/>
<path d="M0 0 C2.97 0 5.94 0 9 0 C9 37.29 9 74.58 9 113 C6.03 113 3.06 113 0 113 C0 75.71 0 38.42 0 0 Z " fill="#D83714" transform="translate(231,175)"/>
<path d="M0 0 C1.2375 0.1546875 1.2375 0.1546875 2.5 0.3125 C5.0325648 4.11134719 4.78837676 7.1584917 4.7746582 11.56005859 C4.77976913 12.40102585 4.78488007 13.2419931 4.79014587 14.10844421 C4.80406301 16.89268074 4.80308334 19.67667029 4.80078125 22.4609375 C4.80466739 24.39523409 4.80900188 26.32952983 4.81376648 28.26382446 C4.82123352 32.32076786 4.82093417 36.37762425 4.81567383 40.43457031 C4.80988252 45.63222055 4.82679969 50.82951407 4.8500185 56.02710533 C4.8647556 60.02312298 4.8656275 64.01905475 4.86250877 68.01509476 C4.86302213 69.93123709 4.86826251 71.84738421 4.87832069 73.76350021 C4.8906655 76.44461935 4.88390493 79.12504421 4.87231445 81.80615234 C4.87995819 82.59697708 4.88760193 83.38780182 4.89547729 84.20259094 C4.85200139 88.75557577 4.24996488 91.6470357 1.5 95.3125 C-0.9375 94.9375 -0.9375 94.9375 -3.5 94.3125 C-5.13246626 91.04756749 -4.64721986 87.44350321 -4.64526367 83.85546875 C-4.64862228 82.98056793 -4.6519809 82.10566711 -4.65544128 81.20425415 C-4.66496573 78.30282179 -4.66689503 75.40144703 -4.66796875 72.5 C-4.67117988 70.48982723 -4.67454384 68.47965469 -4.67805481 66.46948242 C-4.68404953 62.25276141 -4.68589432 58.03606091 -4.68530273 53.81933594 C-4.685201 48.40509233 -4.69886361 42.99097953 -4.71607494 37.57676697 C-4.72716935 33.4247578 -4.72922275 29.27278053 -4.72869301 25.12075806 C-4.7298766 23.12398833 -4.73431943 21.12721786 -4.74202538 19.13046265 C-4.75177541 16.34339103 -4.74896727 13.55660707 -4.74291992 10.76953125 C-4.74853943 9.93829742 -4.75415894 9.1070636 -4.75994873 8.25064087 C-4.71750733 0.58968842 -4.71750733 0.58968842 0 0 Z " fill="#040100" transform="translate(182.5,183.6875)"/>
<path d="M0 0 C1.98 0 3.96 0 6 0 C6.59732819 2.76264289 7 5.16032769 7 8 C4.525 7.01 4.525 7.01 2 6 C2 6.66 2 7.32 2 8 C1.34 8 0.68 8 0 8 C0 5.36 0 2.72 0 0 Z " fill="#AA3921" transform="translate(211,299)"/>
<path d="M0 0 C3 1 3 1 5 3 C5.66 2.01 6.32 1.02 7 0 C7.66 0 8.32 0 9 0 C9 2.64 9 5.28 9 8 C8.34 8 7.68 8 7 8 C6.67 7.34 6.34 6.68 6 6 C5.01 6 4.02 6 3 6 C2.67 6.66 2.34 7.32 2 8 C1.34 8 0.68 8 0 8 C0 5.36 0 2.72 0 0 Z " fill="#BE4025" transform="translate(297,299)"/>
<path d="M0 0 C3.875 1.875 3.875 1.875 5 3 C5.33 2.01 5.66 1.02 6 0 C6.66 0 7.32 0 8 0 C8 2.64 8 5.28 8 8 C4.125 6.125 4.125 6.125 3 5 C2.67 5.99 2.34 6.98 2 8 C1.34 8 0.68 8 0 8 C0 5.36 0 2.72 0 0 Z " fill="#C44226" transform="translate(335,299)"/>
<path d="M0 0 C3.875 1.875 3.875 1.875 5 3 C5.33 2.01 5.66 1.02 6 0 C6.66 0 7.32 0 8 0 C8 2.64 8 5.28 8 8 C4.125 6.125 4.125 6.125 3 5 C2.67 5.99 2.34 6.98 2 8 C1.34 8 0.68 8 0 8 C0 5.36 0 2.72 0 0 Z " fill="#CA4427" transform="translate(278,299)"/>
<path d="M0 0 C1.98 0.99 1.98 0.99 4 2 C4.33 1.34 4.66 0.68 5 0 C5.66 0 6.32 0 7 0 C7 2.64 7 5.28 7 8 C6.34 8 5.68 8 5 8 C4.34 7.01 3.68 6.02 3 5 C2.67 5.99 2.34 6.98 2 8 C1.34 8 0.68 8 0 8 C0 5.36 0 2.72 0 0 Z " fill="#BE4025" transform="translate(158,299)"/>
<path d="M0 0 C0.99 0 1.98 0 3 0 C6 5.75 6 5.75 6 8 C5.34 8 4.68 8 4 8 C4 7.34 4 6.68 4 6 C2.35 6 0.7 6 -1 6 C-1 6.66 -1 7.32 -1 8 C-1.66 8 -2.32 8 -3 8 C-1.125 2.25 -1.125 2.25 0 0 Z " fill="#C44226" transform="translate(248,299)"/>
<path d="M0 0 C1.98 0 3.96 0 6 0 C4.68 0.33 3.36 0.66 2 1 C2 1.66 2 2.32 2 3 C3.32 3 4.64 3 6 3 C6.33 4.65 6.66 6.3 7 8 C4.69 8 2.38 8 0 8 C0 5.36 0 2.72 0 0 Z " fill="#B73D23" transform="translate(140,299)"/>
<path d="M0 0 C1.98 0 3.96 0 6 0 C4.68 0.33 3.36 0.66 2 1 C2 1.66 2 2.32 2 3 C3.32 3 4.64 3 6 3 C6 4.65 6 6.3 6 8 C4.02 8 2.04 8 0 8 C0 5.36 0 2.72 0 0 Z " fill="#B83E24" transform="translate(318,299)"/>
<path d="M0 0 C1.98 0 3.96 0 6 0 C6 0.33 6 0.66 6 1 C4.35 1 2.7 1 1 1 C1 1.66 1 2.32 1 3 C2.32 3 3.64 3 5 3 C5.33 4.65 5.66 6.3 6 8 C4.02 8 2.04 8 0 8 C0 5.36 0 2.72 0 0 Z " fill="#BB3F24" transform="translate(194,299)"/>
<path d="M0 0 C0.66 0 1.32 0 2 0 C2 2.64 2 5.28 2 8 C1.01 7.67 0.02 7.34 -1 7 C-0.67 4.69 -0.34 2.38 0 0 Z " fill="#B53D23" transform="translate(284,299)"/>
<path d="M0 0 C0.99 0 1.98 0 3 0 C3.33 0.99 3.66 1.98 4 3 C3.67 3.66 3.34 4.32 3 5 C1.68 4.67 0.36 4.34 -1 4 C-0.67 2.68 -0.34 1.36 0 0 Z " fill="#9D351E" transform="translate(248,299)"/>
</svg>
