<?xml version="1.0" encoding="UTF-8"?>
<svg version="1.1" xmlns="http://www.w3.org/2000/svg" width="325" height="81">
<path d="M0 0 C1 1 1 1 1.12025452 3.54994202 C1.11803391 4.68467453 1.11581329 5.81940704 1.11352539 6.98852539 C1.11344986 8.26977798 1.11337433 9.55103058 1.11329651 10.87110901 C1.10818909 12.27995848 1.10297309 13.68880756 1.09765625 15.09765625 C1.09579202 16.53112234 1.09436814 17.96458907 1.09336853 19.39805603 C1.08954372 23.17759957 1.07971377 26.9571049 1.06866455 30.7366333 C1.05844963 34.59069298 1.05387074 38.44475882 1.04882812 42.29882812 C1.03809146 49.86590287 1.02101549 57.43294609 1 65 C-2.28675211 66.37562833 -4.73414257 67.24630025 -8.3125 67.125 C-9.529375 67.08375 -10.74625 67.0425 -12 67 C-12.90483637 61.63510405 -13.12303662 56.49682543 -13.0625 51.0625 C-13.05798828 50.28326172 -13.05347656 49.50402344 -13.04882812 48.70117188 C-13.03716908 46.80074732 -13.01923877 44.90036294 -13 43 C-13.14622803 43.61520508 -13.29245605 44.23041016 -13.44311523 44.86425781 C-14.10767215 47.65956186 -14.77258242 50.45478173 -15.4375 53.25 C-15.66759766 54.21808594 -15.89769531 55.18617187 -16.13476562 56.18359375 C-16.35712891 57.11816406 -16.57949219 58.05273438 -16.80859375 59.015625 C-17.01282959 59.87446289 -17.21706543 60.73330078 -17.42749023 61.61816406 C-17.61641846 62.40416992 -17.80534668 63.19017578 -18 64 C-18.153479 64.73702148 -18.30695801 65.47404297 -18.46508789 66.23339844 C-19 68 -19 68 -20.75 69.25 C-23.28737029 70.0957901 -25.34234296 70.14764761 -28 70 C-28.4375 68.6875 -28.875 67.375 -29.3125 66.0625 C-29.58449219 65.2478125 -29.85648438 64.433125 -30.13671875 63.59375 C-30.70495923 61.88645733 -31.27014678 60.17814502 -31.83203125 58.46875 C-32.09371094 57.6746875 -32.35539062 56.880625 -32.625 56.0625 C-32.98464844 54.96615234 -32.98464844 54.96615234 -33.3515625 53.84765625 C-33.97746134 51.94025119 -33.97746134 51.94025119 -35 50 C-34.98839844 50.66644531 -34.97679687 51.33289062 -34.96484375 52.01953125 C-34.91584652 57.02424808 -34.97905826 62.00504271 -35.3125 67 C-35.37050781 67.886875 -35.42851563 68.77375 -35.48828125 69.6875 C-36.09673626 72.43715929 -36.68689474 73.4061825 -39 75 C-41.2265625 75.328125 -41.2265625 75.328125 -43.625 75.25 C-44.42164063 75.23453125 -45.21828125 75.2190625 -46.0390625 75.203125 C-48 75 -48 75 -49 74 C-49.09413687 71.94443339 -49.11742998 69.88559819 -49.11352539 67.82788086 C-49.11367142 67.18399918 -49.11381744 66.54011749 -49.1139679 65.87672424 C-49.11326885 63.73939697 -49.10547691 61.60215587 -49.09765625 59.46484375 C-49.09579204 57.98653715 -49.09436815 56.50822993 -49.09336853 55.02992249 C-49.08954359 51.13201198 -49.07971352 47.23413851 -49.06866455 43.33624268 C-49.05844992 39.36153667 -49.0538708 35.38682471 -49.04882812 31.41210938 C-49.03809122 23.608056 -49.02101509 15.80403318 -49 8 C-48.34 8 -47.68 8 -47 8 C-46.773125 7.4225 -46.54625 6.845 -46.3125 6.25 C-44.54069457 3.21261926 -43.04035523 1.81127546 -40 0 C-36.96830689 -0.32555094 -34.03587743 -0.23810803 -31 0 C-29.56745285 4.39996626 -28.71281959 8.66497363 -28.0625 13.25 C-27.18179957 19.3303558 -25.76713394 25.12133443 -24 31 C-21.92919432 22.99915986 -20.0759916 14.96442548 -18.35839844 6.88134766 C-17.10803105 1.10803105 -17.10803105 1.10803105 -16 0 C-14.06914715 -0.26289978 -12.12922521 -0.46064599 -10.1875 -0.625 C-9.12917969 -0.72039062 -8.07085937 -0.81578125 -6.98046875 -0.9140625 C-4.34431262 -0.99007224 -2.46873246 -0.86319317 0 0 Z " fill="#F9280C" transform="translate(52,4)"/>
<path d="M0 0 C4.29 0 8.58 0 13 0 C15.84984298 4.65474354 17.7023817 8.70139194 19 14 C21.33364352 11.07096942 23.04960836 8.11431797 24.6875 4.75 C25.450625 3.1825 26.21375 1.615 27 0 C31.29 0 35.58 0 40 0 C41.37524133 4.12572399 40.0777414 5.54543289 38.21875 9.42578125 C37.61820472 10.7101533 37.01795358 11.99466292 36.41796875 13.27929688 C35.46189958 15.29616624 34.50096196 17.31049953 33.53369141 19.32202148 C32.60275728 21.26723914 31.69123049 23.22069312 30.78125 25.17578125 C30.22501953 26.34020752 29.66878906 27.50463379 29.09570312 28.7043457 C27.11266349 34.66892947 29.43247351 39.62507928 31.625 45.25 C31.88498779 45.93022217 32.14497559 46.61044434 32.4128418 47.3112793 C33.2684432 49.54353603 34.13319178 51.77207241 35 54 C35.31372559 54.80840332 35.62745117 55.61680664 35.95068359 56.44970703 C37.20609833 59.68361991 38.46188894 62.91734673 39.72705078 66.14746094 C40.87607321 69.08334121 42.0028219 72.00846571 43 75 C41.47819196 74.91120235 39.95751235 74.80303 38.4375 74.6875 C37.59058594 74.62949219 36.74367188 74.57148437 35.87109375 74.51171875 C32.1066305 73.8407736 29.3357153 72.90557085 26 71 C24.51274197 68.36915313 23.5495977 66.30586008 22.625 63.5 C22.37878906 62.82324219 22.13257813 62.14648438 21.87890625 61.44921875 C20.86845827 58.64978089 19.94112173 55.82336519 19 53 C16.36634013 57.9221313 14.35524176 62.57903298 13 68 C9.34142468 69.31534494 6.91973519 68.65468309 3.25 67.5625 C1.77273438 67.13130859 1.77273438 67.13130859 0.265625 66.69140625 C-0.48203125 66.46324219 -1.2296875 66.23507813 -2 66 C-1.37466243 61.93996551 -0.05075317 58.71388408 1.7578125 55.03515625 C2.30050781 53.90529297 2.84320313 52.77542969 3.40234375 51.61132812 C4.55074282 49.24552187 5.70700514 46.88351644 6.87109375 44.52539062 C7.41121094 43.39423828 7.95132812 42.26308594 8.5078125 41.09765625 C9.00941895 40.07164307 9.51102539 39.04562988 10.02783203 37.98852539 C11.56495454 33.26328264 10.37673498 29.42699643 8.4765625 24.9765625 C8.1775 24.265 7.8784375 23.5534375 7.5703125 22.8203125 C7.25835937 22.09585937 6.94640625 21.37140625 6.625 20.625 C0 5.01694915 0 5.01694915 0 0 Z " fill="#F8280C" transform="translate(279,4)"/>
<path d="M0 0 C1.9140625 1.1015625 1.9140625 1.1015625 4.6640625 3.1015625 C4.6640625 3.7615625 4.6640625 4.4215625 4.6640625 5.1015625 C5.3240625 5.1015625 5.9840625 5.1015625 6.6640625 5.1015625 C10.31088762 12.40491173 10.18891073 19.75454493 10.16503906 27.73706055 C10.16406589 30.03105993 10.20578522 32.32171549 10.25 34.61523438 C10.31541297 42.61354579 10.1584313 49.74184024 4.6640625 56.1015625 C0.02346621 60.02910308 -5.29737105 61.36139755 -11.3359375 61.1015625 C-16.93996159 59.96465995 -20.70622052 57.58533053 -24.3359375 53.1015625 C-26.56038348 48.79940695 -26.64253848 44.69249144 -26.63671875 39.94921875 C-26.64100388 39.17146591 -26.645289 38.39371307 -26.64970398 37.59239197 C-26.6554293 35.95263642 -26.65596082 34.31285548 -26.65161133 32.6730957 C-26.64845197 30.17549982 -26.67192954 27.67909024 -26.69726562 25.18164062 C-26.699539 23.58333482 -26.70024193 21.98502585 -26.69921875 20.38671875 C-26.7084285 19.64591568 -26.71763824 18.90511261 -26.72712708 18.14186096 C-26.67220682 11.93320821 -24.70843661 8.16031117 -21.3359375 3.1015625 C-20.6759375 3.1015625 -20.0159375 3.1015625 -19.3359375 3.1015625 C-19.3359375 2.4415625 -19.3359375 1.7815625 -19.3359375 1.1015625 C-13.35826864 -1.63546537 -6.24469809 -2.40180696 0 0 Z M-13.3359375 14.1015625 C-13.73580872 18.66258248 -13.66496142 23.23784489 -13.65161133 27.81445312 C-13.64844947 30.0929334 -13.67191267 32.37011771 -13.69726562 34.6484375 C-13.69953838 36.09114419 -13.70024223 37.53385438 -13.69921875 38.9765625 C-13.70219971 40.29398438 -13.70518066 41.61140625 -13.70825195 42.96875 C-13.58538818 44.00257812 -13.46252441 45.03640625 -13.3359375 46.1015625 C-10.50020487 48.43931279 -10.50020487 48.43931279 -7.2109375 47.8515625 C-6.2621875 47.6040625 -5.3134375 47.3565625 -4.3359375 47.1015625 C-2.13307899 42.69584547 -3.15008803 36.71577441 -3.15063477 31.81591797 C-3.14844603 29.610156 -3.1302789 27.40489234 -3.11132812 25.19921875 C-3.10839457 23.80208505 -3.10640952 22.40494897 -3.10546875 21.0078125 C-3.10135986 19.73228516 -3.09725098 18.45675781 -3.09301758 17.14257812 C-3.01394553 13.99118358 -3.01394553 13.99118358 -5.3359375 12.1015625 C-9.84074027 11.5910667 -9.84074027 11.5910667 -13.3359375 14.1015625 Z " fill="#F6290E" transform="translate(86.3359375,4.8984375)"/>
<path d="M0 0 C2.58203125 -0.37231445 2.58203125 -0.37231445 5.8125 -0.36328125 C7.54886719 -0.36231445 7.54886719 -0.36231445 9.3203125 -0.36132812 C10.53460938 -0.34521484 11.74890625 -0.32910156 13 -0.3125 C14.21429688 -0.31572266 15.42859375 -0.31894531 16.6796875 -0.32226562 C25.73318452 -0.26681548 25.73318452 -0.26681548 28 2 C28.23046875 4.09375 28.23046875 4.09375 28.1875 6.5 C28.18105469 7.2940625 28.17460937 8.088125 28.16796875 8.90625 C28 11 28 11 27 13 C21.72 13 16.44 13 11 13 C11 15.31 11 17.62 11 20 C15.29 20 19.58 20 24 20 C25.30765478 23.92296433 25.1971417 26.86002433 25 31 C23 33 23 33 20.3984375 33.1953125 C18.90183594 33.16050781 18.90183594 33.16050781 17.375 33.125 C16.37210938 33.10695312 15.36921875 33.08890625 14.3359375 33.0703125 C13.17964844 33.03550781 13.17964844 33.03550781 12 33 C11.67 35.97 11.34 38.94 11 42 C12.14339844 41.98839844 13.28679687 41.97679687 14.46484375 41.96484375 C15.95572754 41.95546712 17.44661309 41.94636679 18.9375 41.9375 C19.69224609 41.92912109 20.44699219 41.92074219 21.22460938 41.91210938 C23.14994313 41.90347559 25.07535581 41.94775667 27 42 C28 43 28 43 28.1328125 44.99609375 C28.13023437 45.80175781 28.12765625 46.60742188 28.125 47.4375 C28.12886719 48.64212891 28.12886719 48.64212891 28.1328125 49.87109375 C28 52 28 52 27 54 C23.03069011 54.02465881 19.06140966 54.04284023 15.09204102 54.05493164 C13.74079614 54.05997057 12.38955674 54.06680177 11.03833008 54.07543945 C9.09979566 54.08752419 7.161222 54.09269828 5.22265625 54.09765625 C3.47094116 54.10551147 3.47094116 54.10551147 1.68383789 54.11352539 C-1 54 -1 54 -2 53 C-2.10366483 51.45078869 -2.13851499 49.8968994 -2.14526367 48.34423828 C-2.15164352 47.35295929 -2.15802338 46.3616803 -2.16459656 45.34036255 C-2.16626579 43.72168777 -2.16626579 43.72168777 -2.16796875 42.0703125 C-2.17129715 40.96904022 -2.17462555 39.86776794 -2.17805481 38.73312378 C-2.18312928 36.39777038 -2.18546298 34.06240969 -2.18530273 31.72705078 C-2.18748637 28.14733956 -2.20562896 24.56793775 -2.22460938 20.98828125 C-2.22754371 18.72395939 -2.22952824 16.45963606 -2.23046875 14.1953125 C-2.23765427 13.12024445 -2.24483978 12.04517639 -2.25224304 10.93753052 C-2.24916641 9.9399472 -2.24608978 8.94236389 -2.24291992 7.91455078 C-2.24434494 7.03598419 -2.24576996 6.1574176 -2.24723816 5.25222778 C-2 3 -2 3 0 0 Z " fill="#F3280E" transform="translate(141,4)"/>
<path d="M0 0 C1.21042969 -0.00128906 2.42085937 -0.00257812 3.66796875 -0.00390625 C4.94285156 -0.00003906 6.21773437 0.00382813 7.53125 0.0078125 C9.44357422 0.00201172 9.44357422 0.00201172 11.39453125 -0.00390625 C13.21017578 -0.00197266 13.21017578 -0.00197266 15.0625 0 C16.18205078 0.00112793 17.30160156 0.00225586 18.45507812 0.00341797 C21.03125 0.1328125 21.03125 0.1328125 22.03125 1.1328125 C22.12976171 2.96397133 22.16097629 4.79901183 22.15625 6.6328125 C22.16011719 8.13328125 22.16011719 8.13328125 22.1640625 9.6640625 C22.03125 12.1328125 22.03125 12.1328125 21.03125 13.1328125 C18.50075598 13.20594817 15.99820163 13.22528777 13.46875 13.1953125 C12.75783203 13.19080078 12.04691406 13.18628906 11.31445312 13.18164062 C9.55334987 13.16982114 7.79228964 13.15188513 6.03125 13.1328125 C6.03125 15.7728125 6.03125 18.4128125 6.03125 21.1328125 C6.88589844 21.12121094 7.74054688 21.10960938 8.62109375 21.09765625 C9.72582031 21.08863281 10.83054688 21.07960938 11.96875 21.0703125 C13.07089844 21.05871094 14.17304688 21.04710938 15.30859375 21.03515625 C18.03125 21.1328125 18.03125 21.1328125 19.03125 22.1328125 C19.17435287 25.8019702 19.07346662 29.45996691 19.03125 33.1328125 C14.74125 33.1328125 10.45125 33.1328125 6.03125 33.1328125 C6.04285156 34.56496094 6.05445313 35.99710938 6.06640625 37.47265625 C6.07578255 39.33854037 6.08488292 41.20442589 6.09375 43.0703125 C6.10212891 44.01583984 6.11050781 44.96136719 6.11914062 45.93554688 C6.12236328 46.83466797 6.12558594 47.73378906 6.12890625 48.66015625 C6.13414307 49.49281006 6.13937988 50.32546387 6.14477539 51.18334961 C6.03125 53.1328125 6.03125 53.1328125 5.03125 54.1328125 C3.20009117 54.23132421 1.36505067 54.26253879 -0.46875 54.2578125 C-1.4690625 54.26039062 -2.469375 54.26296875 -3.5 54.265625 C-5.96875 54.1328125 -5.96875 54.1328125 -6.96875 53.1328125 C-7.06736598 51.51153827 -7.09673767 49.88598882 -7.09814453 48.26171875 C-7.10129669 47.22394287 -7.10444885 46.18616699 -7.10769653 45.11694336 C-7.1056723 43.98780518 -7.10364807 42.85866699 -7.1015625 41.6953125 C-7.10299759 39.96970093 -7.10299759 39.96970093 -7.10446167 38.20922852 C-7.10514369 35.77132106 -7.1032879 33.3334118 -7.09912109 30.89550781 C-7.09377317 27.14904732 -7.09906539 23.40270673 -7.10546875 19.65625 C-7.10480797 17.29427057 -7.10352682 14.93229121 -7.1015625 12.5703125 C-7.10358673 11.44117432 -7.10561096 10.31203613 -7.10769653 9.14868164 C-7.10454437 8.11090576 -7.10139221 7.07312988 -7.09814453 6.00390625 C-7.09734894 5.08536865 -7.09655334 4.16683105 -7.09573364 3.22045898 C-6.83019316 -1.14510055 -3.68446502 0.00371204 0 0 Z " fill="#F7270C" transform="translate(179.96875,3.8671875)"/>
<path d="M0 0 C1.34888732 0.00015905 2.69778075 0.00584927 4.04663086 0.01586914 C5.10991859 0.01799156 5.10991859 0.01799156 6.19468689 0.02015686 C8.46699173 0.02577096 10.73919936 0.03832576 13.01147461 0.05102539 C14.54858257 0.05603858 16.08569206 0.0606018 17.62280273 0.06469727 C21.39823103 0.07574497 25.17358632 0.09301898 28.94897461 0.11352539 C31.51720928 4.86432126 30.72823614 7.81454701 29.94897461 13.11352539 C26.64897461 13.11352539 23.34897461 13.11352539 19.94897461 13.11352539 C19.95682983 15.0141272 19.95682983 15.0141272 19.96484375 16.953125 C19.98288975 21.6363861 19.99440514 26.3196441 20.00390625 31.00292969 C20.00894739 33.03320837 20.01578018 35.06348341 20.02441406 37.09375 C20.03648928 40.00529886 20.04220495 42.91679989 20.04663086 45.82836914 C20.05179214 46.74190659 20.05695343 47.65544403 20.06227112 48.59666443 C20.06246629 50.76927966 20.01109266 52.94179835 19.94897461 55.11352539 C18.21507671 56.84742329 15.81191225 56.5253738 13.44897461 56.73852539 C12.44866211 56.83391602 11.44834961 56.92930664 10.41772461 57.02758789 C9.60303711 57.05594727 8.78834961 57.08430664 7.94897461 57.11352539 C6.94897461 56.11352539 6.94897461 56.11352539 6.82872009 54.36082458 C6.83205101 53.21831993 6.83205101 53.21831993 6.83544922 52.05273438 C6.83552475 51.19191757 6.83560028 50.33110077 6.8356781 49.44419861 C6.84083939 48.50878738 6.84600067 47.57337616 6.85131836 46.60961914 C6.85273331 45.65660416 6.85414825 44.70358917 6.85560608 43.72169495 C6.86122309 40.66477374 6.87377845 37.60792462 6.88647461 34.55102539 C6.89148742 32.48396915 6.8960507 30.41691177 6.90014648 28.34985352 C6.91119805 23.27104951 6.92847406 18.19229969 6.94897461 13.11352539 C6.23870117 13.12512695 5.52842773 13.13672852 4.79663086 13.14868164 C3.8775293 13.15770508 2.95842773 13.16672852 2.01147461 13.17602539 C1.09495117 13.18762695 0.17842773 13.19922852 -0.76586914 13.21118164 C-3.05102539 13.11352539 -3.05102539 13.11352539 -4.05102539 12.11352539 C-4.1495371 10.28236656 -4.18075168 8.44732606 -4.17602539 6.61352539 C-4.17860352 5.61321289 -4.18118164 4.61290039 -4.18383789 3.58227539 C-3.98709523 -0.07482346 -3.72983834 0.13878329 0 0 Z " fill="#F92A0C" transform="translate(105.051025390625,3.886474609375)"/>
<path d="M0 0 C3.96 0 7.92 0 12 0 C12.33 14.52 12.66 29.04 13 44 C17.95 44.66 22.9 45.32 28 46 C29.12256131 48.24512262 29.13413762 49.51456649 29.125 52 C29.12886719 53.051875 29.12886719 53.051875 29.1328125 54.125 C29 56 29 56 28 58 C25.02063784 57.8575483 22.0415558 57.71112006 19.0625 57.5625 C18.23169922 57.52318359 17.40089844 57.48386719 16.54492188 57.44335938 C0.63876793 56.63876793 0.63876793 56.63876793 -1 55 C-1.0987517 53.31744765 -1.12798904 51.63075972 -1.12939453 49.9453125 C-1.13254669 48.86749512 -1.13569885 47.78967773 -1.13894653 46.67919922 C-1.1369223 45.50631348 -1.13489807 44.33342773 -1.1328125 43.125 C-1.13376923 41.9302002 -1.13472595 40.73540039 -1.13571167 39.50439453 C-1.13639371 36.9723302 -1.13453778 34.44026412 -1.13037109 31.90820312 C-1.12502321 28.0168874 -1.13031533 24.12568711 -1.13671875 20.234375 C-1.13605797 17.78124974 -1.13477682 15.32812456 -1.1328125 12.875 C-1.13483673 11.70211426 -1.13686096 10.52922852 -1.13894653 9.32080078 C-1.13579437 8.2429834 -1.13264221 7.16516602 -1.12939453 6.0546875 C-1.12859894 5.10062012 -1.12780334 4.14655273 -1.12698364 3.16357422 C-1 1 -1 1 0 0 Z " fill="#F8290C" transform="translate(207,4)"/>
<path d="M0 0 C1.50046875 0.00386719 1.50046875 0.00386719 3.03125 0.0078125 C4.0315625 0.00523438 5.031875 0.00265625 6.0625 0 C8.53125 0.1328125 8.53125 0.1328125 9.53125 1.1328125 C9.6252567 3.09650403 9.64868381 5.06360449 9.64477539 7.02954102 C9.64469986 8.29077286 9.64462433 9.5520047 9.64454651 10.85145569 C9.6394391 12.23821044 9.63422309 13.62496479 9.62890625 15.01171875 C9.62704201 16.42276459 9.62561814 17.83381107 9.62461853 19.24485779 C9.62079379 22.96521785 9.6109639 26.6855391 9.59991455 30.40588379 C9.58969948 34.19962031 9.58512071 37.99336308 9.58007812 41.78710938 C9.56934158 49.23569481 9.5522657 56.68424822 9.53125 64.1328125 C4.66942832 64.32728537 1.09022484 63.77301025 -3.46875 62.1328125 C-3.49187764 54.19667463 -3.50966723 46.26055074 -3.52056217 38.32438755 C-3.52579008 34.63966752 -3.53288605 30.95497047 -3.54418945 27.27026367 C-3.55502162 23.71710419 -3.56102753 20.16396687 -3.56362724 16.61079216 C-3.5654809 15.25235584 -3.56910038 13.89392079 -3.57448006 12.53549385 C-3.58169475 10.63899027 -3.58215809 8.74246457 -3.58227539 6.84594727 C-3.584496 5.76450943 -3.58671661 4.68307159 -3.58900452 3.56886292 C-3.42588339 0.26444414 -3.30524711 0.17781393 0 0 Z " fill="#F7290C" transform="translate(263.46875,3.8671875)"/>
<path d="M0 0 C1.02617446 3.07852337 1.13870213 5.22303425 1.16113281 8.44946289 C1.17074036 9.56394302 1.1803479 10.67842316 1.19024658 11.82667542 C1.19449646 13.02984909 1.19874634 14.23302277 1.203125 15.47265625 C1.20882507 16.70664658 1.21452515 17.9406369 1.22039795 19.21202087 C1.22984838 21.82208396 1.2363821 24.43215898 1.24023438 27.04223633 C1.24463969 29.72433936 1.25861013 32.40612439 1.28125 35.08813477 C1.31156574 38.94557543 1.32226479 42.80261007 1.328125 46.66015625 C1.3404718 47.86535416 1.3528186 49.07055206 1.36553955 50.31227112 C1.36253845 51.42359909 1.35953735 52.53492706 1.35644531 53.67993164 C1.36009094 54.66127579 1.36373657 55.64261993 1.36749268 56.65370178 C1.1855838 57.8151194 1.1855838 57.8151194 1 59 C-2.3225225 61.215015 -2.87731591 61.19410876 -6.625 60.6875 C-7.42164063 60.58824219 -8.21828125 60.48898438 -9.0390625 60.38671875 C-11 60 -11 60 -12 59 C-12.09899561 57.19490627 -12.12799151 55.38593072 -12.12939453 53.578125 C-12.13254669 52.42022461 -12.13569885 51.26232422 -12.13894653 50.06933594 C-12.1369223 48.80895508 -12.13489807 47.54857422 -12.1328125 46.25 C-12.13424759 44.32462402 -12.13424759 44.32462402 -12.13571167 42.36035156 C-12.13718831 39.63996176 -12.13503519 36.91960475 -12.13037109 34.19921875 C-12.12467381 30.70515331 -12.12795299 27.21116467 -12.13394356 23.71710205 C-12.13841754 20.39472847 -12.13528885 17.07237577 -12.1328125 13.75 C-12.13483673 12.48961914 -12.13686096 11.22923828 -12.13894653 9.93066406 C-12.13579437 8.77276367 -12.13264221 7.61486328 -12.12939453 6.421875 C-12.12820114 4.88418457 -12.12820114 4.88418457 -12.12698364 3.31542969 C-12 1 -12 1 -11 0 C-3.19196429 -1.47321429 -3.19196429 -1.47321429 0 0 Z " fill="#FA2A0A" transform="translate(253,4)"/>
<path d="M0 0 C4.72098508 4.72098508 3.30166066 12.96280087 3.35009766 19.25830078 C3.36658779 20.82550986 3.39378573 22.39264592 3.43212891 23.95947266 C3.85344258 41.29195072 3.85344258 41.29195072 -2 48 C-6.56858402 51.85924251 -12.03054165 53.33102357 -18 53 C-20.26953125 52.0078125 -20.26953125 52.0078125 -22 51 C-21.30132812 50.91363281 -20.60265625 50.82726563 -19.8828125 50.73828125 C-17.16266117 50.31831454 -14.61775054 49.85521867 -12 49 C-10.29801073 46.62529562 -10.29801073 46.62529562 -10 44 C-9.67 43.34 -9.34 42.68 -9 42 C-11.3431213 42.25561323 -13.67843403 42.59270772 -16 43 C-16.33 43.66 -16.66 44.32 -17 45 C-18.32 45 -19.64 45 -21 45 C-21 43.35 -21 41.7 -21 40 C-21.66 40 -22.32 40 -23 40 C-22.67 28.45 -22.34 16.9 -22 5 C-21.01 5 -20.02 5 -19 5 C-19 4.01 -19 3.02 -19 2 C-17.72125 1.938125 -16.4425 1.87625 -15.125 1.8125 C-14.40570313 1.77769531 -13.68640625 1.74289062 -12.9453125 1.70703125 C-12.30335937 1.80371094 -11.66140625 1.90039062 -11 2 C-6.12994888 9.30507668 -6.73482301 18.64968381 -6.875 27.125 C-6.88402344 28.176875 -6.89304687 29.22875 -6.90234375 30.3125 C-6.92564147 32.87524878 -6.95834888 35.43749512 -7 38 C-6.01 37.505 -6.01 37.505 -5 37 C-5 37.66 -5 38.32 -5 39 C-2.32157013 38.27726486 -2.32157013 38.27726486 0 36 C0.64792354 32.4356226 0.41938653 28.91902152 0.25 25.3125 C0.18800362 23.37123829 0.13063457 21.42982273 0.078125 19.48828125 C0.05041016 18.55838379 0.02269531 17.62848633 -0.00585938 16.67041016 C-0.00037981 14.17309834 0.20081834 11.82580633 0.546875 9.35546875 C0.69640625 8.24816406 0.8459375 7.14085937 1 6 C0.67 5.67 0.34 5.34 0 5 C-0.04063832 3.33382885 -0.042721 1.66611905 0 0 Z M-20 6 C-20.39987122 10.56101998 -20.32902392 15.13628239 -20.31567383 19.71289062 C-20.31251197 21.9913709 -20.33597517 24.26855521 -20.36132812 26.546875 C-20.36360088 27.98958169 -20.36430473 29.43229188 -20.36328125 30.875 C-20.36626221 32.19242188 -20.36924316 33.50984375 -20.37231445 34.8671875 C-20.24945068 35.90101562 -20.12658691 36.93484375 -20 38 C-17.16426737 40.33775029 -17.16426737 40.33775029 -13.875 39.75 C-12.92625 39.5025 -11.9775 39.255 -11 39 C-8.79714149 34.59428297 -9.81415053 28.61421191 -9.81469727 23.71435547 C-9.81250853 21.5085935 -9.7943414 19.30332984 -9.77539062 17.09765625 C-9.77245707 15.70052255 -9.77047202 14.30338647 -9.76953125 12.90625 C-9.76542236 11.63072266 -9.76131348 10.35519531 -9.75708008 9.04101562 C-9.67800803 5.88962108 -9.67800803 5.88962108 -12 4 C-16.50480277 3.4895042 -16.50480277 3.4895042 -20 6 Z " fill="#E02C13" transform="translate(93,13)"/>
<path d="M0 0 C0.66 0.33 1.32 0.66 2 1 C4.70362038 9.11086115 4.09486394 18.67451988 4.125 27.1875 C4.12959229 27.91791504 4.13418457 28.64833008 4.13891602 29.40087891 C4.1297104 32.53741468 3.99924397 35.0022681 3 38 C3.66 38 4.32 38 5 38 C5 39.65 5 41.3 5 43 C6.32 43 7.64 43 9 43 C9.33 42.01 9.66 41.02 10 40 C12.31 40 14.62 40 17 40 C16.67 41.134375 16.34 42.26875 16 43.4375 C14.95495727 46.54376639 14.95495727 46.54376639 15 48 C9.555 48.495 9.555 48.495 4 49 C3.34 48.01 2.68 47.02 2 46 C1.34 46 0.68 46 0 46 C-0.33 44.68 -0.66 43.36 -1 42 C-0.34 42 0.32 42 1 42 C0.67 40.68 0.34 39.36 0 38 C-1.98 38.495 -1.98 38.495 -4 39 C-5.19006466 33.26427851 -5.29240238 27.58439527 -5.375 21.75 C-5.41238281 20.76386719 -5.44976562 19.77773438 -5.48828125 18.76171875 C-5.57598687 11.36521121 -3.8369381 6.30069275 0 0 Z " fill="#FA290B" transform="translate(67,15)"/>
<path d="M0 0 C1.34888732 0.00015905 2.69778075 0.00584927 4.04663086 0.01586914 C5.10991859 0.01799156 5.10991859 0.01799156 6.19468689 0.02015686 C8.46699173 0.02577096 10.73919936 0.03832576 13.01147461 0.05102539 C14.54858257 0.05603858 16.08569206 0.0606018 17.62280273 0.06469727 C21.39823103 0.07574497 25.17358632 0.09301898 28.94897461 0.11352539 C31.51720928 4.86432126 30.72823614 7.81454701 29.94897461 13.11352539 C26.64897461 13.11352539 23.34897461 13.11352539 19.94897461 13.11352539 C19.95682983 15.0141272 19.95682983 15.0141272 19.96484375 16.953125 C19.98288975 21.6363861 19.99440514 26.3196441 20.00390625 31.00292969 C20.00894739 33.03320837 20.01578018 35.06348341 20.02441406 37.09375 C20.03648928 40.00529886 20.04220495 42.91679989 20.04663086 45.82836914 C20.05179214 46.74190659 20.05695343 47.65544403 20.06227112 48.59666443 C20.06246629 50.76927966 20.01109266 52.94179835 19.94897461 55.11352539 C18.21507671 56.84742329 15.81191225 56.5253738 13.44897461 56.73852539 C12.44866211 56.83391602 11.44834961 56.92930664 10.41772461 57.02758789 C9.60303711 57.05594727 8.78834961 57.08430664 7.94897461 57.11352539 C6.94897461 56.11352539 6.94897461 56.11352539 6.83544922 52.14453125 C6.83560841 50.37246933 6.84130676 48.60040279 6.85131836 46.82836914 C6.85273331 45.8975502 6.85414825 44.96673126 6.85560608 44.00770569 C6.86122289 41.02211348 6.87377821 38.0365951 6.88647461 35.05102539 C6.89148745 33.03214626 6.89605073 31.01326596 6.90014648 28.99438477 C6.91119778 24.03406967 6.92847366 19.07381007 6.94897461 14.11352539 C7.27897461 14.11352539 7.60897461 14.11352539 7.94897461 14.11352539 C7.94897461 27.64352539 7.94897461 41.17352539 7.94897461 55.11352539 C11.24897461 55.11352539 14.54897461 55.11352539 17.94897461 55.11352539 C17.94897461 40.92352539 17.94897461 26.73352539 17.94897461 12.11352539 C21.1634873 10.50626904 24.38509997 11.05604354 27.94897461 11.11352539 C27.28897461 8.80352539 26.62897461 6.49352539 25.94897461 4.11352539 C17.03897461 4.11352539 8.12897461 4.11352539 -1.05102539 4.11352539 C-1.38102539 6.42352539 -1.71102539 8.73352539 -2.05102539 11.11352539 C0.91897461 11.11352539 3.88897461 11.11352539 6.94897461 11.11352539 C6.94897461 11.77352539 6.94897461 12.43352539 6.94897461 13.11352539 C5.30322895 13.1404069 3.65736048 13.15986662 2.01147461 13.17602539 C1.09495117 13.18762695 0.17842773 13.19922852 -0.76586914 13.21118164 C-3.05102539 13.11352539 -3.05102539 13.11352539 -4.05102539 12.11352539 C-4.1495371 10.28236656 -4.18075168 8.44732606 -4.17602539 6.61352539 C-4.17860352 5.61321289 -4.18118164 4.61290039 -4.18383789 3.58227539 C-3.98709523 -0.07482346 -3.72983834 0.13878329 0 0 Z " fill="#B52A1E" transform="translate(105.051025390625,3.886474609375)"/>
<path d="M0 0 C2.58203125 -0.37231445 2.58203125 -0.37231445 5.8125 -0.36328125 C7.54886719 -0.36231445 7.54886719 -0.36231445 9.3203125 -0.36132812 C10.53460938 -0.34521484 11.74890625 -0.32910156 13 -0.3125 C14.21429688 -0.31572266 15.42859375 -0.31894531 16.6796875 -0.32226562 C25.73318452 -0.26681548 25.73318452 -0.26681548 28 2 C28.23046875 4.09375 28.23046875 4.09375 28.1875 6.5 C28.18105469 7.2940625 28.17460937 8.088125 28.16796875 8.90625 C28 11 28 11 27 13 C21.72 13 16.44 13 11 13 C11 15.31 11 17.62 11 20 C10.67 20 10.34 20 10 20 C9.90234375 13.84765625 9.90234375 13.84765625 10 12 C11 11 11 11 14.37890625 10.90234375 C15.77347077 10.90901631 17.16801743 10.92097468 18.5625 10.9375 C19.27341797 10.94201172 19.98433594 10.94652344 20.71679688 10.95117188 C22.47790013 10.96299136 24.23896036 10.98092737 26 11 C25.67 8.36 25.34 5.72 25 3 C17.08 2.67 9.16 2.34 1 2 C0.67 18.83 0.34 35.66 0 53 C8.58 53 17.16 53 26 53 C26 50.03 26 47.06 26 44 C20.72 44 15.44 44 10 44 C8.96840374 40.90521121 9.02517138 39.47368607 9.4375 36.3125 C9.53933594 35.50425781 9.64117187 34.69601563 9.74609375 33.86328125 C9.82988281 33.24839844 9.91367188 32.63351563 10 32 C10.66 32.33 11.32 32.66 12 33 C11.67 35.97 11.34 38.94 11 42 C12.14339844 41.98839844 13.28679687 41.97679687 14.46484375 41.96484375 C15.95572754 41.95546712 17.44661309 41.94636679 18.9375 41.9375 C19.69224609 41.92912109 20.44699219 41.92074219 21.22460938 41.91210938 C23.14994313 41.90347559 25.07535581 41.94775667 27 42 C28 43 28 43 28.1328125 44.99609375 C28.13023437 45.80175781 28.12765625 46.60742188 28.125 47.4375 C28.12886719 48.64212891 28.12886719 48.64212891 28.1328125 49.87109375 C28 52 28 52 27 54 C23.03069011 54.02465881 19.06140966 54.04284023 15.09204102 54.05493164 C13.74079614 54.05997057 12.38955674 54.06680177 11.03833008 54.07543945 C9.09979566 54.08752419 7.161222 54.09269828 5.22265625 54.09765625 C3.47094116 54.10551147 3.47094116 54.10551147 1.68383789 54.11352539 C-1 54 -1 54 -2 53 C-2.10366483 51.45078869 -2.13851499 49.8968994 -2.14526367 48.34423828 C-2.15164352 47.35295929 -2.15802338 46.3616803 -2.16459656 45.34036255 C-2.16626579 43.72168777 -2.16626579 43.72168777 -2.16796875 42.0703125 C-2.17129715 40.96904022 -2.17462555 39.86776794 -2.17805481 38.73312378 C-2.18312928 36.39777038 -2.18546298 34.06240969 -2.18530273 31.72705078 C-2.18748637 28.14733956 -2.20562896 24.56793775 -2.22460938 20.98828125 C-2.22754371 18.72395939 -2.22952824 16.45963606 -2.23046875 14.1953125 C-2.23765427 13.12024445 -2.24483978 12.04517639 -2.25224304 10.93753052 C-2.24916641 9.9399472 -2.24608978 8.94236389 -2.24291992 7.91455078 C-2.24434494 7.03598419 -2.24576996 6.1574176 -2.24723816 5.25222778 C-2 3 -2 3 0 0 Z " fill="#B82A1D" transform="translate(141,4)"/>
<path d="M0 0 C3.96 0 7.92 0 12 0 C12.33 14.52 12.66 29.04 13 44 C17.95 44.66 22.9 45.32 28 46 C29.12256131 48.24512262 29.13413762 49.51456649 29.125 52 C29.12886719 53.051875 29.12886719 53.051875 29.1328125 54.125 C29 56 29 56 28 58 C25.02063784 57.8575483 22.0415558 57.71112006 19.0625 57.5625 C18.23169922 57.52318359 17.40089844 57.48386719 16.54492188 57.44335938 C0.63876793 56.63876793 0.63876793 56.63876793 -1 55 C-1.0987517 53.31744765 -1.12798904 51.63075972 -1.12939453 49.9453125 C-1.13254669 48.86749512 -1.13569885 47.78967773 -1.13894653 46.67919922 C-1.1369223 45.50631348 -1.13489807 44.33342773 -1.1328125 43.125 C-1.13376923 41.9302002 -1.13472595 40.73540039 -1.13571167 39.50439453 C-1.13639371 36.9723302 -1.13453778 34.44026412 -1.13037109 31.90820312 C-1.12502321 28.0168874 -1.13031533 24.12568711 -1.13671875 20.234375 C-1.13605797 17.78124974 -1.13477682 15.32812456 -1.1328125 12.875 C-1.13483673 11.70211426 -1.13686096 10.52922852 -1.13894653 9.32080078 C-1.13579437 8.2429834 -1.13264221 7.16516602 -1.12939453 6.0546875 C-1.12859894 5.10062012 -1.12780334 4.14655273 -1.12698364 3.16357422 C-1 1 -1 1 0 0 Z M2 2 C0.02824178 3.97175822 0.58560571 7.70021014 0.44140625 10.40234375 C0.39915421 11.16038803 0.35690216 11.91843231 0.31336975 12.69944763 C-0.12625159 21.32030009 -0.11049637 29.93311557 -0.0625 38.5625 C-0.05746411 40.17122253 -0.05290498 41.77994663 -0.04882812 43.38867188 C-0.03887821 47.25918725 -0.01927765 51.12947602 0 55 C7.59 55 15.18 55 23 55 C23.33 55.66 23.66 56.32 24 57 C24.66 57 25.32 57 26 57 C26.29562367 51.67829506 26.29562367 51.67829506 24 47 C17.07 46.505 17.07 46.505 10 46 C10 31.48 10 16.96 10 2 C7.36 2 4.72 2 2 2 Z " fill="#BE3021" transform="translate(207,4)"/>
<path d="M0 0 C1.21042969 -0.00128906 2.42085937 -0.00257812 3.66796875 -0.00390625 C4.94285156 -0.00003906 6.21773437 0.00382813 7.53125 0.0078125 C9.44357422 0.00201172 9.44357422 0.00201172 11.39453125 -0.00390625 C13.21017578 -0.00197266 13.21017578 -0.00197266 15.0625 0 C16.18205078 0.00112793 17.30160156 0.00225586 18.45507812 0.00341797 C21.03125 0.1328125 21.03125 0.1328125 22.03125 1.1328125 C22.12976171 2.96397133 22.16097629 4.79901183 22.15625 6.6328125 C22.16011719 8.13328125 22.16011719 8.13328125 22.1640625 9.6640625 C22.03125 12.1328125 22.03125 12.1328125 21.03125 13.1328125 C18.50075598 13.20594817 15.99820163 13.22528777 13.46875 13.1953125 C12.75783203 13.19080078 12.04691406 13.18628906 11.31445312 13.18164062 C9.55334987 13.16982114 7.79228964 13.15188513 6.03125 13.1328125 C6.03125 15.7728125 6.03125 18.4128125 6.03125 21.1328125 C6.88589844 21.12121094 7.74054688 21.10960938 8.62109375 21.09765625 C9.72582031 21.08863281 10.83054688 21.07960938 11.96875 21.0703125 C13.07089844 21.05871094 14.17304688 21.04710938 15.30859375 21.03515625 C18.03125 21.1328125 18.03125 21.1328125 19.03125 22.1328125 C19.17435287 25.8019702 19.07346662 29.45996691 19.03125 33.1328125 C14.74125 33.1328125 10.45125 33.1328125 6.03125 33.1328125 C6.03125 32.8028125 6.03125 32.4728125 6.03125 32.1328125 C9.99125 32.1328125 13.95125 32.1328125 18.03125 32.1328125 C18.03125 29.1628125 18.03125 26.1928125 18.03125 23.1328125 C16.64099609 23.15021484 16.64099609 23.15021484 15.22265625 23.16796875 C14.02511719 23.17699219 12.82757813 23.18601562 11.59375 23.1953125 C10.39878906 23.20691406 9.20382813 23.21851562 7.97265625 23.23046875 C5.03125 23.1328125 5.03125 23.1328125 4.03125 22.1328125 C3.95919489 20.44672284 3.94738932 18.75780591 3.96875 17.0703125 C3.97777344 16.15121094 3.98679688 15.23210938 3.99609375 14.28515625 C4.00769531 13.57488281 4.01929688 12.86460938 4.03125 12.1328125 C7.03438748 10.63124376 9.82192522 11.04000046 13.15625 11.0703125 C14.43757813 11.07933594 15.71890625 11.08835937 17.0390625 11.09765625 C18.02648437 11.10925781 19.01390625 11.12085938 20.03125 11.1328125 C20.03125 7.8328125 20.03125 4.5328125 20.03125 1.1328125 C11.78125 1.1328125 3.53125 1.1328125 -4.96875 1.1328125 C-4.96875 18.2928125 -4.96875 35.4528125 -4.96875 53.1328125 C-1.66875 53.1328125 1.63125 53.1328125 5.03125 53.1328125 C5.03125 53.4628125 5.03125 53.7928125 5.03125 54.1328125 C3.21882948 54.15968529 1.40629767 54.17914965 -0.40625 54.1953125 C-1.41558594 54.20691406 -2.42492187 54.21851563 -3.46484375 54.23046875 C-5.96875 54.1328125 -5.96875 54.1328125 -6.96875 53.1328125 C-7.06736598 51.51153827 -7.09673767 49.88598882 -7.09814453 48.26171875 C-7.10129669 47.22394287 -7.10444885 46.18616699 -7.10769653 45.11694336 C-7.1056723 43.98780518 -7.10364807 42.85866699 -7.1015625 41.6953125 C-7.10299759 39.96970093 -7.10299759 39.96970093 -7.10446167 38.20922852 C-7.10514369 35.77132106 -7.1032879 33.3334118 -7.09912109 30.89550781 C-7.09377317 27.14904732 -7.09906539 23.40270673 -7.10546875 19.65625 C-7.10480797 17.29427057 -7.10352682 14.93229121 -7.1015625 12.5703125 C-7.10358673 11.44117432 -7.10561096 10.31203613 -7.10769653 9.14868164 C-7.10454437 8.11090576 -7.10139221 7.07312988 -7.09814453 6.00390625 C-7.09734894 5.08536865 -7.09655334 4.16683105 -7.09573364 3.22045898 C-6.83019316 -1.14510055 -3.68446502 0.00371204 0 0 Z " fill="#B12A20" transform="translate(179.96875,3.8671875)"/>
<path d="M0 0 C1 1 1 1 1.12025452 3.54994202 C1.1169236 5.25204079 1.1169236 5.25204079 1.11352539 6.98852539 C1.11344986 8.26977798 1.11337433 9.55103058 1.11329651 10.87110901 C1.10818909 12.27995848 1.10297309 13.68880756 1.09765625 15.09765625 C1.09579202 16.53112234 1.09436814 17.96458907 1.09336853 19.39805603 C1.08954372 23.17759957 1.07971377 26.9571049 1.06866455 30.7366333 C1.05844963 34.59069298 1.05387074 38.44475882 1.04882812 42.29882812 C1.03809146 49.86590287 1.02101549 57.43294609 1 65 C-2.28675211 66.37562833 -4.73414257 67.24630025 -8.3125 67.125 C-9.529375 67.08375 -10.74625 67.0425 -12 67 C-12.495 64.03 -12.495 64.03 -13 61 C-12.01 61 -11.02 61 -10 61 C-10 61.99 -10 62.98 -10 64 C-7.03 64 -4.06 64 -1 64 C-1 43.54 -1 23.08 -1 2 C-5.62 2 -10.24 2 -15 2 C-15.12375 4.10375 -15.2475 6.2075 -15.375 8.375 C-15.75 14.75 -15.75 14.75 -18 17 C-18.71927295 19.31765729 -19.3909893 21.65095874 -20 24 C-20.33 24 -20.66 24 -21 24 C-19.84968685 3.84968685 -19.84968685 3.84968685 -16 0 C-14.06914715 -0.26289978 -12.12922521 -0.46064599 -10.1875 -0.625 C-9.12917969 -0.72039062 -8.07085937 -0.81578125 -6.98046875 -0.9140625 C-4.34431262 -0.99007224 -2.46873246 -0.86319317 0 0 Z " fill="#B13124" transform="translate(52,4)"/>
<path d="M0 0 C0.66 0 1.32 0 2 0 C2 0.99 2 1.98 2 3 C3.32 2.67 4.64 2.34 6 2 C6.07420211 6.07502794 6.1286257 10.14979392 6.16479492 14.2253418 C6.17987397 15.61147919 6.2003405 16.99756894 6.22631836 18.38354492 C6.26273716 20.37658146 6.27813018 22.36996723 6.29296875 24.36328125 C6.31653442 26.16212769 6.31653442 26.16212769 6.34057617 27.99731445 C6 31 6 31 4.6496582 32.90307617 C2.38419298 34.40947476 0.65849404 34.21555357 -2 34 C-4.03076736 29.93846528 -3.18488654 24.71379311 -3.1875 20.25 C-3.19974609 19.16460937 -3.21199219 18.07921875 -3.22460938 16.9609375 C-3.23614069 10.6725294 -2.85050284 5.70100568 0 0 Z " fill="#FB280A" transform="translate(88,18)"/>
<path d="M0 0 C1.02617446 3.07852337 1.13870213 5.22303425 1.16113281 8.44946289 C1.17074036 9.56394302 1.1803479 10.67842316 1.19024658 11.82667542 C1.19449646 13.02984909 1.19874634 14.23302277 1.203125 15.47265625 C1.20882507 16.70664658 1.21452515 17.9406369 1.22039795 19.21202087 C1.22984838 21.82208396 1.2363821 24.43215898 1.24023438 27.04223633 C1.24463969 29.72433936 1.25861013 32.40612439 1.28125 35.08813477 C1.31156574 38.94557543 1.32226479 42.80261007 1.328125 46.66015625 C1.3404718 47.86535416 1.3528186 49.07055206 1.36553955 50.31227112 C1.36253845 51.42359909 1.35953735 52.53492706 1.35644531 53.67993164 C1.36009094 54.66127579 1.36373657 55.64261993 1.36749268 56.65370178 C1.1855838 57.8151194 1.1855838 57.8151194 1 59 C-2.3225225 61.215015 -2.87731591 61.19410876 -6.625 60.6875 C-7.42164063 60.58824219 -8.21828125 60.48898438 -9.0390625 60.38671875 C-11 60 -11 60 -12 59 C-12.09899561 57.19490627 -12.12799151 55.38593072 -12.12939453 53.578125 C-12.13254669 52.42022461 -12.13569885 51.26232422 -12.13894653 50.06933594 C-12.1369223 48.80895508 -12.13489807 47.54857422 -12.1328125 46.25 C-12.13424759 44.32462402 -12.13424759 44.32462402 -12.13571167 42.36035156 C-12.13718831 39.63996176 -12.13503519 36.91960475 -12.13037109 34.19921875 C-12.12467381 30.70515331 -12.12795299 27.21116467 -12.13394356 23.71710205 C-12.13841754 20.39472847 -12.13528885 17.07237577 -12.1328125 13.75 C-12.13483673 12.48961914 -12.13686096 11.22923828 -12.13894653 9.93066406 C-12.13579437 8.77276367 -12.13264221 7.61486328 -12.12939453 6.421875 C-12.12820114 4.88418457 -12.12820114 4.88418457 -12.12698364 3.31542969 C-12 1 -12 1 -11 0 C-3.19196429 -1.47321429 -3.19196429 -1.47321429 0 0 Z M-10 2 C-10 20.48 -10 38.96 -10 58 C-7.03 58.33 -4.06 58.66 -1 59 C-0.97471181 51.20378306 -0.95715932 43.40757664 -0.94506836 35.61132812 C-0.94002958 32.95735275 -0.93319849 30.30338016 -0.92456055 27.64941406 C-0.91247511 23.84178989 -0.90676725 20.03420231 -0.90234375 16.2265625 C-0.89718246 15.03382721 -0.89202118 13.84109192 -0.88670349 12.61221313 C-0.88662796 11.51122284 -0.88655243 10.41023254 -0.88647461 9.27587891 C-0.884254 8.30325104 -0.88203339 7.33062317 -0.87974548 6.32852173 C-0.84543196 3.97539612 -0.84543196 3.97539612 -2 2 C-4.64 2 -7.28 2 -10 2 Z " fill="#B12A1D" transform="translate(253,4)"/>
<path d="M0 0 C1.50046875 0.00386719 1.50046875 0.00386719 3.03125 0.0078125 C4.0315625 0.00523438 5.031875 0.00265625 6.0625 0 C8.53125 0.1328125 8.53125 0.1328125 9.53125 1.1328125 C9.6252567 3.09650403 9.64868381 5.06360449 9.64477539 7.02954102 C9.64469986 8.29077286 9.64462433 9.5520047 9.64454651 10.85145569 C9.6394391 12.23821044 9.63422309 13.62496479 9.62890625 15.01171875 C9.62704201 16.42276459 9.62561814 17.83381107 9.62461853 19.24485779 C9.62079379 22.96521785 9.6109639 26.6855391 9.59991455 30.40588379 C9.58969948 34.19962031 9.58512071 37.99336308 9.58007812 41.78710938 C9.56934158 49.23569481 9.5522657 56.68424822 9.53125 64.1328125 C7.22125 64.1328125 4.91125 64.1328125 2.53125 64.1328125 C2.53125 63.8028125 2.53125 63.4728125 2.53125 63.1328125 C4.18125 63.1328125 5.83125 63.1328125 7.53125 63.1328125 C7.53125 43.0028125 7.53125 22.8728125 7.53125 2.1328125 C4.23125 2.1328125 0.93125 2.1328125 -2.46875 2.1328125 C-2.13875 21.9328125 -1.80875 41.7328125 -1.46875 62.1328125 C-2.12875 62.1328125 -2.78875 62.1328125 -3.46875 62.1328125 C-3.49187764 54.19667463 -3.50966723 46.26055074 -3.52056217 38.32438755 C-3.52579008 34.63966752 -3.53288605 30.95497047 -3.54418945 27.27026367 C-3.55502162 23.71710419 -3.56102753 20.16396687 -3.56362724 16.61079216 C-3.5654809 15.25235584 -3.56910038 13.89392079 -3.57448006 12.53549385 C-3.58169475 10.63899027 -3.58215809 8.74246457 -3.58227539 6.84594727 C-3.584496 5.76450943 -3.58671661 4.68307159 -3.58900452 3.56886292 C-3.42588339 0.26444414 -3.30524711 0.17781393 0 0 Z " fill="#B0291E" transform="translate(263.46875,3.8671875)"/>
<path d="M0 0 C2.64 0 5.28 0 8 0 C7.67 0.66 7.34 1.32 7 2 C5.02 2 3.04 2 1 2 C1.14111883 4.75031587 1.28771165 7.50015418 1.4375 10.25 C1.47681641 11.02730469 1.51613281 11.80460937 1.55664062 12.60546875 C1.59853516 13.35957031 1.64042969 14.11367188 1.68359375 14.890625 C1.72025146 15.58188477 1.75690918 16.27314453 1.79467773 16.98535156 C1.95222341 19.01231902 1.95222341 19.01231902 2.5 20.98632812 C3.03361778 23.13539036 3.205904 25.11807994 3.31640625 27.328125 C3.35830078 28.12734375 3.40019531 28.9265625 3.44335938 29.75 C3.48267578 30.575 3.52199219 31.4 3.5625 32.25 C3.62727539 33.51070312 3.62727539 33.51070312 3.69335938 34.796875 C3.79908543 36.86440671 3.90001295 38.93218281 4 41 C2.515 41.495 2.515 41.495 1 42 C1 44.64 1 47.28 1 50 C2.65 50 4.3 50 6 50 C6 49.01 6 48.02 6 47 C6.66 47 7.32 47 8 47 C8 36.11 8 25.22 8 14 C8.33 14 8.66 14 9 14 C9 28.19 9 42.38 9 57 C6.03 56.67 3.06 56.34 0 56 C0 37.52 0 19.04 0 0 Z " fill="#F12B11" transform="translate(243,6)"/>
<path d="M0 0 C0.66 0 1.32 0 2 0 C2.33 21.12 2.66 42.24 3 64 C7.455 63.505 7.455 63.505 12 63 C12 56.73 12 50.46 12 44 C12.66 44.33 13.32 44.66 14 45 C13.91911825 48.10523354 13.8062811 51.20850333 13.6875 54.3125 C13.65366211 55.63411133 13.65366211 55.63411133 13.61914062 56.98242188 C13.58369141 57.82998047 13.54824219 58.67753906 13.51171875 59.55078125 C13.48553467 60.33106689 13.45935059 61.11135254 13.43237305 61.9152832 C12.89864677 64.48868168 12.05906809 65.40823371 10 67 C7.7734375 67.328125 7.7734375 67.328125 5.375 67.25 C4.57835937 67.23453125 3.78171875 67.2190625 2.9609375 67.203125 C1 67 1 67 0 66 C-0.09413687 63.94443339 -0.11742998 61.88559819 -0.11352539 59.82788086 C-0.11367142 59.18399918 -0.11381744 58.54011749 -0.1139679 57.87672424 C-0.11326885 55.73939697 -0.10547691 53.60215587 -0.09765625 51.46484375 C-0.09579204 49.98653715 -0.09436815 48.50822993 -0.09336853 47.02992249 C-0.08954359 43.13201198 -0.07971352 39.23413851 -0.06866455 35.33624268 C-0.05844992 31.36153667 -0.0538708 27.38682471 -0.04882812 23.41210938 C-0.03809122 15.608056 -0.02101509 7.80403318 0 0 Z " fill="#B52C22" transform="translate(3,12)"/>
<path d="M0 0 C1.34888732 0.00015905 2.69778075 0.00584927 4.04663086 0.01586914 C5.10991859 0.01799156 5.10991859 0.01799156 6.19468689 0.02015686 C8.46699173 0.02577096 10.73919936 0.03832576 13.01147461 0.05102539 C14.54858257 0.05603858 16.08569206 0.0606018 17.62280273 0.06469727 C21.39823103 0.07574497 25.17358632 0.09301898 28.94897461 0.11352539 C28.94897461 3.74352539 28.94897461 7.37352539 28.94897461 11.11352539 C28.61897461 11.11352539 28.28897461 11.11352539 27.94897461 11.11352539 C27.28897461 8.80352539 26.62897461 6.49352539 25.94897461 4.11352539 C17.03897461 4.11352539 8.12897461 4.11352539 -1.05102539 4.11352539 C-1.38102539 6.42352539 -1.71102539 8.73352539 -2.05102539 11.11352539 C0.91897461 11.11352539 3.88897461 11.11352539 6.94897461 11.11352539 C6.94897461 11.77352539 6.94897461 12.43352539 6.94897461 13.11352539 C5.30322895 13.1404069 3.65736048 13.15986662 2.01147461 13.17602539 C1.09495117 13.18762695 0.17842773 13.19922852 -0.76586914 13.21118164 C-3.05102539 13.11352539 -3.05102539 13.11352539 -4.05102539 12.11352539 C-4.1495371 10.28236656 -4.18075168 8.44732606 -4.17602539 6.61352539 C-4.17860352 5.61321289 -4.18118164 4.61290039 -4.18383789 3.58227539 C-3.98709523 -0.07482346 -3.72983834 0.13878329 0 0 Z " fill="#D42818" transform="translate(105.051025390625,3.886474609375)"/>
<path d="M0 0 C1.44049302 2.88098603 0.29084127 4.80473578 -0.50628662 7.77954102 C-1.28204866 11.26850416 -1.24761922 14.65944384 -1.1953125 18.21875 C-1.1924826 18.96209595 -1.18965271 19.70544189 -1.18673706 20.47131348 C-1.17566157 22.81438217 -1.15058228 25.15704947 -1.125 27.5 C-1.11495381 29.10155693 -1.10583085 30.70311993 -1.09765625 32.3046875 C-1.0757639 36.2032765 -1.04132386 40.10157052 -1 44 C0.65 43.34 2.3 42.68 4 42 C4 43.65 4 45.3 4 47 C3.34 47 2.68 47 2 47 C2.33 48.32 2.66 49.64 3 51 C3.66 51 4.32 51 5 51 C5.33 50.34 5.66 49.68 6 49 C6.33 50.65 6.66 52.3 7 54 C2.7273343 53.52525937 0.726198 51.15665032 -2 48 C-4.24141611 43.70948293 -4.3065953 39.5862983 -4.30078125 34.84765625 C-4.30506638 34.06990341 -4.3093515 33.29215057 -4.31376648 32.49082947 C-4.3194918 30.85107392 -4.32002332 29.21129298 -4.31567383 27.5715332 C-4.31251447 25.07393732 -4.33599204 22.57752774 -4.36132812 20.08007812 C-4.3636015 18.48177232 -4.36430443 16.88346335 -4.36328125 15.28515625 C-4.372491 14.54435318 -4.38170074 13.80355011 -4.39118958 13.04029846 C-4.34778899 8.13392718 -3.61261037 3.61261037 0 0 Z " fill="#CC2A16" transform="translate(64,10)"/>
<path d="M0 0 C0.33 0.66 0.66 1.32 1 2 C1.66 2 2.32 2 3 2 C5.6592466 10.31014561 5.03850218 15.86115488 2 24 C1.34 24 0.68 24 0 24 C-0.00257813 24.56847656 -0.00515625 25.13695313 -0.0078125 25.72265625 C-0.29617404 31.48027501 -1.5350834 34.42193396 -5.625 38.4921875 C-7.24758183 40.06678428 -7.24758183 40.06678428 -8 43 C-5.36 42.67 -2.72 42.34 0 42 C0 42.66 0 43.32 0 44 C1.32 44.33 2.64 44.66 4 45 C4.144375 43.9275 4.28875 42.855 4.4375 41.75 C4.83749442 39.08337051 5.27591924 36.58600271 6 34 C6.66 34 7.32 34 8 34 C7.25749403 38.08378283 6.17076699 42.01939223 5 46 C1.34142468 47.31534494 -1.08026481 46.65468309 -4.75 45.5625 C-6.22726562 45.13130859 -6.22726562 45.13130859 -7.734375 44.69140625 C-8.48203125 44.46324219 -9.2296875 44.23507813 -10 44 C-9.37466243 39.93996551 -8.05075317 36.71388408 -6.2421875 33.03515625 C-5.69949219 31.90529297 -5.15679687 30.77542969 -4.59765625 29.61132812 C-3.44925718 27.24552187 -2.29299486 24.88351644 -1.12890625 22.52539062 C-0.31873047 20.82866211 -0.31873047 20.82866211 0.5078125 19.09765625 C1.00941895 18.07164307 1.51102539 17.04562988 2.02783203 15.98852539 C3.38624216 11.81265939 2.83707817 8.72339623 0.9375 4.8125 C0.4734375 3.9153125 0.4734375 3.9153125 0 3 C0 2.01 0 1.02 0 0 Z " fill="#BF2618" transform="translate(287,26)"/>
<path d="M0 0 C0.99 0 1.98 0 3 0 C3.19601027 2.70795726 3.38204839 5.41599805 3.5625 8.125 C3.61857422 8.88554688 3.67464844 9.64609375 3.73242188 10.4296875 C4.01498074 14.79993128 3.93147699 18.68070669 3 23 C2.67 23 2.34 23 2 23 C1.27980999 18.85890746 0.94102193 14.94992159 0.96875 10.7421875 C0.97326172 9.85128418 0.97777344 8.96038086 0.98242188 8.04248047 C0.98822266 7.36846191 0.99402344 6.69444336 1 6 C0.85377197 6.61520508 0.70754395 7.23041016 0.55688477 7.86425781 C-0.10767215 10.65956186 -0.77258242 13.45478173 -1.4375 16.25 C-1.66759766 17.21808594 -1.89769531 18.18617187 -2.13476562 19.18359375 C-2.35712891 20.11816406 -2.57949219 21.05273438 -2.80859375 22.015625 C-3.01282959 22.87446289 -3.21706543 23.73330078 -3.42749023 24.61816406 C-3.61641846 25.40416992 -3.80534668 26.19017578 -4 27 C-4.23021851 28.10553223 -4.23021851 28.10553223 -4.46508789 29.23339844 C-5 31 -5 31 -6.75 32.25 C-9.28737029 33.0957901 -11.34234296 33.14764761 -14 33 C-14.50559908 31.56445975 -15.0042749 30.1264798 -15.5 28.6875 C-15.91765625 27.48673828 -15.91765625 27.48673828 -16.34375 26.26171875 C-17 24 -17 24 -17 21 C-16.34 21 -15.68 21 -15 21 C-14.67 21.99 -14.34 22.98 -14 24 C-11.98491642 24.73323796 -11.98491642 24.73323796 -10 25 C-10 25.66 -10 26.32 -10 27 C-11.32 26.67 -12.64 26.34 -14 26 C-13.67 27.98 -13.34 29.96 -13 32 C-10.47636012 31.37466625 -10.47636012 31.37466625 -8 30 C-7.10613836 27.45224694 -7.10613836 27.45224694 -7 25 C-6.67 25 -6.34 25 -6 25 C-6.020625 23.948125 -6.04125 22.89625 -6.0625 21.8125 C-5.97751192 16.62822683 -4.98817777 12.74953579 -3 8 C-1.98690417 5.33814036 -0.99509614 2.66866693 0 0 Z " fill="#BB2D25" transform="translate(38,41)"/>
<path d="M0 0 C4.29 0 8.58 0 13 0 C15.84984298 4.65474354 17.7023817 8.70139194 19 14 C19.99 13.34 20.98 12.68 22 12 C21.67 14.31 21.34 16.62 21 19 C19.35 18.67 17.7 18.34 16 18 C15.01 13.38 14.02 8.76 13 4 C10.36 4 7.72 4 5 4 C4.67 5.32 4.34 6.64 4 8 C4.66 8 5.32 8 6 8 C7.97094808 12.92737019 8.1799928 16.78020872 8 22 C2.78353508 16.78353508 0.50664756 7.2619483 0 0 Z " fill="#BD2718" transform="translate(279,4)"/>
<path d="M0 0 C3.0390625 -0.29296875 3.0390625 -0.29296875 6.625 -0.1875 C7.81351562 -0.16042969 9.00203125 -0.13335937 10.2265625 -0.10546875 C11.14179688 -0.07066406 12.05703125 -0.03585937 13 0 C14.42600325 4.27800976 12.45637064 6.86765922 10.5625 10.6875 C10.22412109 11.38939453 9.88574219 12.09128906 9.53710938 12.81445312 C8.70018652 14.54723706 7.85122607 16.27419752 7 18 C6.67 18 6.34 18 6 18 C6 13.38 6 8.76 6 4 C4.68 4 3.36 4 2 4 C0.30027975 6.30480288 0.30027975 6.30480288 -1 9 C-1.99 10.485 -1.99 10.485 -3 12 C-3.66 12 -4.32 12 -5 12 C-4.54738642 10.56068883 -4.08767021 9.12361001 -3.625 7.6875 C-3.24214844 6.48673828 -3.24214844 6.48673828 -2.8515625 5.26171875 C-2 3 -2 3 0 0 Z " fill="#E62315" transform="translate(306,4)"/>
<path d="M0 0 C2.97 0 5.94 0 9 0 C10.43254715 4.39996626 11.28718041 8.66497363 11.9375 13.25 C12.81820043 19.3303558 14.23286606 25.12133443 16 31 C16.99 27.535 16.99 27.535 18 24 C18.33 24 18.66 24 19 24 C19 27.63 19 31.26 19 35 C18.34 35 17.68 35 17 35 C16.67 36.32 16.34 37.64 16 39 C11.76803629 31.5596173 11.24047453 24.45267982 11 16 C10.34 16 9.68 16 9 16 C8.34 11.71 7.68 7.42 7 3 C4.69 2.67 2.38 2.34 0 2 C0 1.34 0 0.68 0 0 Z " fill="#CA2816" transform="translate(12,4)"/>
<path d="M0 0 C1.27875 -0.061875 2.5575 -0.12375 3.875 -0.1875 C4.95394531 -0.23970703 4.95394531 -0.23970703 6.0546875 -0.29296875 C6.69664063 -0.19628906 7.33859375 -0.09960938 8 0 C12.77877338 7.16816007 12.26952873 16.29792139 12.125 24.625 C12.11597656 25.62917969 12.10695313 26.63335937 12.09765625 27.66796875 C12.07437746 30.11224126 12.04168487 32.55598408 12 35 C10.68 35.66 9.36 36.32 8 37 C8.00523682 36.00556885 8.01047363 35.0111377 8.01586914 33.98657227 C8.03392041 30.30966079 8.04543246 26.63275325 8.05493164 22.95581055 C8.05997157 21.36205386 8.0668035 19.76830181 8.07543945 18.17456055 C8.08751999 15.88849747 8.09323155 13.60249533 8.09765625 11.31640625 C8.10281754 10.59973282 8.10797882 9.88305939 8.11329651 9.14466858 C8.11349263 7.42936328 8.06192007 5.71418734 8 4 C6.81575674 2.58422523 6.81575674 2.58422523 3.4375 2.9375 C1.7359375 2.9684375 1.7359375 2.9684375 0 3 C0 2.01 0 1.02 0 0 Z " fill="#DA2611" transform="translate(74,15)"/>
<path d="M0 0 C11.28845091 -0.1972739 11.28845091 -0.1972739 15 1 C16.12256131 3.24512262 16.13413762 4.51456649 16.125 7 C16.12886719 8.051875 16.12886719 8.051875 16.1328125 9.125 C16 11 16 11 15 13 C12.02063784 12.8575483 9.0415558 12.71112006 6.0625 12.5625 C5.23169922 12.52318359 4.40089844 12.48386719 3.54492188 12.44335938 C-2.00365014 12.16269231 -7.48371637 11.66239935 -13 11 C-13 10.67 -13 10.34 -13 10 C-5.41 9.67 2.18 9.34 10 9 C10.33 9.99 10.66 10.98 11 12 C11.66 12 12.32 12 13 12 C12.34 9.03 11.68 6.06 11 3 C5.555 2.505 5.555 2.505 0 2 C0 1.34 0 0.68 0 0 Z " fill="#C1281A" transform="translate(220,49)"/>
<path d="M0 0 C1.65 0 3.3 0 5 0 C4.979375 0.94875 4.95875 1.8975 4.9375 2.875 C4.77448174 5.90666283 4.77448174 5.90666283 6 8 C6.07181821 10.71760108 6.09299506 13.40859388 6.0625 16.125 C6.05798828 16.87910156 6.05347656 17.63320313 6.04882812 18.41015625 C6.03703499 20.27347127 6.01909942 22.13674555 6 24 C5.71125 23.401875 5.4225 22.80375 5.125 22.1875 C3.95257974 19.80672208 3.95257974 19.80672208 2 17 C2 17.66 2 18.32 2 19 C1.34 19 0.68 19 0 19 C0 12.73 0 6.46 0 0 Z " fill="#DA260E" transform="translate(15,37)"/>
<path d="M0 0 C0.33 0 0.66 0 1 0 C1 14.85 1 29.7 1 45 C-2.61136212 46.80568106 -3.544531 47.24851563 -7.25 47.125 C-8.4875 47.08375 -9.725 47.0425 -11 47 C-11.33 45.02 -11.66 43.04 -12 41 C-11.01 41 -10.02 41 -9 41 C-9 41.99 -9 42.98 -9 44 C-6.03 44 -3.06 44 0 44 C0 29.48 0 14.96 0 0 Z " fill="#D42F18" transform="translate(51,24)"/>
<path d="M0 0 C0 2.97 0 5.94 0 9 C-3.96 9 -7.92 9 -12 9 C-12 15.93 -12 22.86 -12 30 C-12.33 30 -12.66 30 -13 30 C-13.06058594 28.89140625 -13.12117187 27.7828125 -13.18359375 26.640625 C-13.26802951 25.1770718 -13.35267599 23.71353075 -13.4375 22.25 C-13.47681641 21.52039063 -13.51613281 20.79078125 -13.55664062 20.0390625 C-13.78217227 15.90878579 -13.78217227 15.90878579 -14.58935547 11.86547852 C-14.72486816 11.24987061 -14.86038086 10.6342627 -15 10 C-13.88671875 8.26171875 -13.88671875 8.26171875 -12 7 C-9.51953125 6.70703125 -9.51953125 6.70703125 -6.8125 6.8125 C-5.46091797 6.85310547 -5.46091797 6.85310547 -4.08203125 6.89453125 C-3.39496094 6.92933594 -2.70789063 6.96414062 -2 7 C-2 5.35 -2 3.7 -2 2 C-2.66 1.67 -3.32 1.34 -4 1 C-1 0 -1 0 0 0 Z M-6 2 C-4 3 -4 3 -4 3 Z " fill="#D42817" transform="translate(198,27)"/>
<path d="M0 0 C4.72098508 4.72098508 3.30166066 12.96280087 3.35009766 19.25830078 C3.36658779 20.82550986 3.39378573 22.39264592 3.43212891 23.95947266 C3.83816351 40.66338331 3.83816351 40.66338331 -2 48 C-3.0625 46.1875 -3.0625 46.1875 -4 44 C-3.67 43.01 -3.34 42.02 -3 41 C-1.515 40.505 -1.515 40.505 0 40 C1.47360305 37.05279391 1.14233596 34.06964632 1.1328125 30.83984375 C1.13376923 30.13477188 1.13472595 29.42970001 1.13571167 28.70326233 C1.13639229 27.21289989 1.13454621 25.72253448 1.13037109 24.23217773 C1.12501318 21.94312942 1.13032409 19.65427663 1.13671875 17.36523438 C1.1360581 15.9192704 1.13477722 14.47330654 1.1328125 13.02734375 C1.13483673 12.33881821 1.13686096 11.65029266 1.13894653 10.94090271 C1.39990572 7.69043303 1.39990572 7.69043303 0 5 C-0.04063832 3.33382885 -0.042721 1.66611905 0 0 Z " fill="#B62B1C" transform="translate(93,13)"/>
<path d="M0 0 C3.63 0 7.26 0 11 0 C8 2 8 2 4 2 C3.67 3.32 3.34 4.64 3 6 C3.66 6 4.32 6 5 6 C6.97094808 10.92737019 7.1799928 14.78020872 7 20 C4.45909143 17.45909143 3.67171659 15.03545541 2.375 11.6875 C1.92898438 10.55699219 1.48296875 9.42648437 1.0234375 8.26171875 C0 5 0 5 0 0 Z " fill="#D0281A" transform="translate(280,6)"/>
<path d="M0 0 C0.33 0.66 0.66 1.32 1 2 C3.94729537 3.15811388 3.94729537 3.15811388 7 3 C7.66 2.67 8.32 2.34 9 2 C8.625 4.4375 8.625 4.4375 8 7 C7.01 7.495 7.01 7.495 6 8 C6.22992333 13.27359602 6.22992333 13.27359602 8.375 17.875 C9.90476487 18.93406799 11.45189322 19.96792881 13 21 C10.3125 21.125 10.3125 21.125 7 20 C2.99050479 14.20850691 0 7.04732594 0 0 Z " fill="#C82819" transform="translate(299,56)"/>
<path d="M0 0 C3.0390625 -0.29296875 3.0390625 -0.29296875 6.625 -0.1875 C7.81351562 -0.16042969 9.00203125 -0.13335937 10.2265625 -0.10546875 C11.14179688 -0.07066406 12.05703125 -0.03585937 13 0 C14.21386936 3.64160808 13.6674695 4.33165469 12.0625 7.6875 C11.68222656 8.49574219 11.30195313 9.30398438 10.91015625 10.13671875 C10.60980469 10.75160156 10.30945313 11.36648438 10 12 C8.46728727 7.41201223 9.97088818 5.22055258 12 1 C8.37 1 4.74 1 1 1 C1.0825 1.886875 1.165 2.77375 1.25 3.6875 C0.94608803 7.71433365 -0.18236593 9.18236593 -3 12 C-3.66 12 -4.32 12 -5 12 C-4.54738642 10.56068883 -4.08767021 9.12361001 -3.625 7.6875 C-3.24214844 6.48673828 -3.24214844 6.48673828 -2.8515625 5.26171875 C-2 3 -2 3 0 0 Z " fill="#99271F" transform="translate(306,4)"/>
<path d="M0 0 C0.66 0 1.32 0 2 0 C1.25749403 4.08378283 0.17076699 8.01939223 -1 12 C-4.65857532 13.31534494 -7.08026481 12.65468309 -10.75 11.5625 C-11.73484375 11.27503906 -12.7196875 10.98757812 -13.734375 10.69140625 C-14.48203125 10.46324219 -15.2296875 10.23507813 -16 10 C-15.34820749 6.18416621 -14.53101025 3.97118595 -12 1 C-12.52268466 3.76276177 -13.10869587 6.3260876 -14 9 C-11.36 8.67 -8.72 8.34 -6 8 C-6 8.66 -6 9.32 -6 10 C-4.68 10.33 -3.36 10.66 -2 11 C-1.855625 9.9275 -1.71125 8.855 -1.5625 7.75 C-1.16250558 5.08337051 -0.72408076 2.58600271 0 0 Z " fill="#B3271E" transform="translate(293,60)"/>
<path d="M0 0 C2.00554992 3.89016215 3.78387686 7.877682 5.5625 11.875 C5.87896484 12.56980469 6.19542969 13.26460937 6.52148438 13.98046875 C8.29941624 17.98930875 9.49622547 21.59714859 10 26 C9.34 26 8.68 26 8 26 C7.32942113 24.2097939 6.6636531 22.41778511 6 20.625 C5.62875 19.62726562 5.2575 18.62953125 4.875 17.6015625 C4 15 4 15 4 13 C3.34 13 2.68 13 2 13 C1.32741333 10.66836622 0.66152556 8.3347961 0 6 C-0.226875 5.236875 -0.45375 4.47375 -0.6875 3.6875 C-1 2 -1 2 0 0 Z " fill="#C32B21" transform="translate(307,42)"/>
<path d="M0 0 C1.27875 -0.061875 2.5575 -0.12375 3.875 -0.1875 C4.95394531 -0.23970703 4.95394531 -0.23970703 6.0546875 -0.29296875 C6.69664063 -0.19628906 7.33859375 -0.09960938 8 0 C10.39629455 3.59444183 10.25781331 6.14861652 10.1953125 10.29296875 C10.1924826 10.99899734 10.18965271 11.70502594 10.18673706 12.43244934 C10.17555464 14.68430633 10.1504542 16.93576352 10.125 19.1875 C10.11496767 20.71548904 10.10584226 22.24348433 10.09765625 23.77148438 C10.07562172 27.51447663 10.04110567 31.25717056 10 35 C9.67 35 9.34 35 9 35 C8.97494385 34.06615479 8.9498877 33.13230957 8.92407227 32.17016602 C8.82913072 28.71674811 8.72988742 25.2635104 8.62768555 21.81030273 C8.58428187 20.31360731 8.54261087 18.81686061 8.50268555 17.32006836 C8.44511384 15.17285688 8.38138284 13.02590479 8.31640625 10.87890625 C8.27974854 9.5854126 8.24309082 8.29191895 8.20532227 6.95922852 C8.3332722 4.11444992 8.3332722 4.11444992 7 3 C4.66702567 2.95907063 2.33294775 2.95758277 0 3 C0 2.01 0 1.02 0 0 Z " fill="#A5382F" transform="translate(74,15)"/>
<path d="M0 0 C1.010625 -0.01675781 2.02125 -0.03351563 3.0625 -0.05078125 C6.38205734 0.35974911 8.27885971 1.41670557 11 3.3125 C7.67099696 4.42216768 7.21704413 4.12800944 4 3.3125 C1.75092848 3.24459325 -0.50001605 3.22750016 -2.75 3.25 C-4.50570312 3.26353516 -4.50570312 3.26353516 -6.296875 3.27734375 C-7.18890625 3.28894531 -8.0809375 3.30054688 -9 3.3125 C-9.33 4.3025 -9.66 5.2925 -10 6.3125 C-10.99 6.3125 -11.98 6.3125 -13 6.3125 C-13 5.6525 -13 4.9925 -13 4.3125 C-12.34 4.3125 -11.68 4.3125 -11 4.3125 C-11 3.6525 -11 2.9925 -11 2.3125 C-7.20947276 0.56356188 -4.16690915 0.01594481 0 0 Z " fill="#CE2822" transform="translate(78,3.6875)"/>
<path d="M0 0 C0.33 0 0.66 0 1 0 C1 6.27 1 12.54 1 19 C-2.3 19 -5.6 19 -9 19 C-9 15.37 -9 11.74 -9 8 C-7 11 -7 11 -7.375 13.6875 C-7.58125 14.450625 -7.7875 15.21375 -8 16 C-5.36 16.33 -2.72 16.66 0 17 C0 11.39 0 5.78 0 0 Z " fill="#E6270D" transform="translate(184,38)"/>
<path d="M0 0 C0.99 0 1.98 0 3 0 C3.19601027 2.70795726 3.38204839 5.41599805 3.5625 8.125 C3.61857422 8.88554688 3.67464844 9.64609375 3.73242188 10.4296875 C4.01498074 14.79993128 3.93147699 18.68070669 3 23 C2.67 23 2.34 23 2 23 C1.00749455 17.29309366 0.89522488 11.78591511 1 6 C0.34 6.99 -0.32 7.98 -1 9 C-0.67 6.03 -0.34 3.06 0 0 Z " fill="#BB2C1C" transform="translate(38,41)"/>
<path d="M0 0 C1 3 1 3 0.00390625 5.48828125 C-0.95332995 7.3638416 -1.9116551 9.2388466 -2.87109375 11.11328125 C-4.10998489 14.28124165 -4.20413777 16.62923732 -4 20 C-4.66 19.67 -5.32 19.34 -6 19 C-7.35123413 12.97141695 -7.09557043 9.550678 -4 4 C-1.8125 1.5625 -1.8125 1.5625 0 0 Z " fill="#D62A17" transform="translate(311,22)"/>
<path d="M0 0 C0.33 0 0.66 0 1 0 C1.43230491 7.34918342 -0.18225815 13.90215087 -2 21 C-2.33 21 -2.66 21 -3 21 C-4.14068745 12.94499167 -3.6893366 7.37867321 0 0 Z " fill="#CE341A" transform="translate(36,47)"/>
<path d="M0 0 C0.99 0.33 1.98 0.66 3 1 C5.63804589 0.60602665 5.63804589 0.60602665 8 0 C7.5 1.875 7.5 1.875 6 4 C0.20994894 6.0963978 -3.98589417 6.07394747 -10 5 C-10 4.67 -10 4.34 -10 4 C-6.7 3.34 -3.4 2.68 0 2 C0 1.34 0 0.68 0 0 Z " fill="#D7331E" transform="translate(81,60)"/>
<path d="M0 0 C0.86625 0.33 1.7325 0.66 2.625 1 C5.95718275 1.98731341 8.55159538 2.16420974 12 2 C11.01 3.485 11.01 3.485 10 5 C8.68 5 7.36 5 6 5 C6 5.99 6 6.98 6 8 C4.68 8 3.36 8 2 8 C2 6.35 2 4.7 2 3 C1.34 3 0.68 3 0 3 C0 2.01 0 1.02 0 0 Z " fill="#DE2816" transform="translate(70,50)"/>
<path d="M0 0 C0.66 0 1.32 0 2 0 C2.8931507 6.58183362 2.95494281 12.42150508 2 19 C1.34 19 0.68 19 0 19 C0 12.73 0 6.46 0 0 Z " fill="#CC1404" transform="translate(15,37)"/>
<path d="M0 0 C0.33 0.99 0.66 1.98 1 3 C-0.3125 5.1875 -0.3125 5.1875 -2 7 C-2.66 7 -3.32 7 -4 7 C-4.33 10.96 -4.66 14.92 -5 19 C-5.33 19 -5.66 19 -6 19 C-6.92017937 6.40717489 -6.92017937 6.40717489 -4.6640625 2.95703125 C-3 1.625 -3 1.625 0 0 Z " fill="#EF3018" transform="translate(11,5)"/>
<path d="M0 0 C0.99 0.495 0.99 0.495 2 1 C2 3.97 2 6.94 2 10 C4.97 10 7.94 10 11 10 C11 10.66 11 11.32 11 12 C9.35425434 12.02688151 7.70838587 12.04634123 6.0625 12.0625 C5.14597656 12.07410156 4.22945313 12.08570313 3.28515625 12.09765625 C1 12 1 12 0 11 C-0.07226502 9.14712498 -0.0838122 7.29166122 -0.0625 5.4375 C-0.05347656 4.42558594 -0.04445313 3.41367188 -0.03515625 2.37109375 C-0.02355469 1.58863281 -0.01195313 0.80617188 0 0 Z " fill="#B53127" transform="translate(101,5)"/>
<path d="M0 0 C5 7.5 5 7.5 5 11 C1.7 10.67 -1.6 10.34 -5 10 C-5 9.67 -5 9.34 -5 9 C-3.35 9 -1.7 9 0 9 C0 6.03 0 3.06 0 0 Z " fill="#B01E17" transform="translate(317,68)"/>
<path d="M0 0 C0.99 0 1.98 0 3 0 C3 0.99 3 1.98 3 3 C5.31 3 7.62 3 10 3 C10.33 3.66 10.66 4.32 11 5 C7.78548731 6.60725635 4.56387464 6.05748185 1 6 C0.67 4.02 0.34 2.04 0 0 Z " fill="#C02B1F" transform="translate(39,65)"/>
<path d="M0 0 C2.97 0 5.94 0 9 0 C10.7479503 5.24385089 11.19392201 9.47322267 11 15 C10.67 15 10.34 15 10 15 C9.86722656 14.30132812 9.73445313 13.60265625 9.59765625 12.8828125 C9.42105469 11.97273437 9.24445312 11.06265625 9.0625 10.125 C8.88847656 9.22007813 8.71445312 8.31515625 8.53515625 7.3828125 C8.10036299 5.00043683 8.10036299 5.00043683 7 3 C4.67843403 2.59270772 2.3431213 2.25561323 0 2 C0 1.34 0 0.68 0 0 Z " fill="#99231D" transform="translate(12,4)"/>
<path d="M0 0 C0.33 0.66 0.66 1.32 1 2 C1.66 2 2.32 2 3 2 C4 9.625 4 9.625 4 13 C2.68 13 1.36 13 0 13 C-0.625 10.625 -0.625 10.625 -1 8 C-0.34 7.34 0.32 6.68 1 6 C0.67801034 2.90073181 0.67801034 2.90073181 0 0 Z " fill="#E22E14" transform="translate(90,8)"/>
<path d="M0 0 C0.33 0 0.66 0 1 0 C1.05399736 1.45792884 1.09279177 2.91642712 1.125 4.375 C1.14820313 5.18710938 1.17140625 5.99921875 1.1953125 6.8359375 C1 9 1 9 -1 11 C-1.71927295 13.31765729 -2.3909893 15.65095874 -3 18 C-3.33 18 -3.66 18 -4 18 C-3.67 14.37 -3.34 10.74 -3 7 C-2.01 6.67 -1.02 6.34 0 6 C0 4.02 0 2.04 0 0 Z " fill="#C92B15" transform="translate(35,10)"/>
<path d="M0 0 C0.66 0 1.32 0 2 0 C1.38722388 2.96175123 0.74627478 4.38058783 -1 7 C-1.99 7 -2.98 7 -4 7 C-4 8.32 -4 9.64 -4 11 C-4.99 11.33 -5.98 11.66 -7 12 C-7.33 10.68 -7.66 9.36 -8 8 C-7.50628906 7.67386719 -7.01257813 7.34773438 -6.50390625 7.01171875 C-5.86324219 6.57472656 -5.22257812 6.13773438 -4.5625 5.6875 C-3.92441406 5.25824219 -3.28632813 4.82898437 -2.62890625 4.38671875 C-0.7114316 2.9965948 -0.7114316 2.9965948 0 0 Z " fill="#E02212" transform="translate(297,53)"/>
<path d="M0 0 C1.12377697 3.30435084 0.89554742 5.0506862 -0.4375 8.25 C-0.72496094 8.95640625 -1.01242188 9.6628125 -1.30859375 10.390625 C-1.53675781 10.92171875 -1.76492187 11.4528125 -2 12 C-2.66 12 -3.32 12 -4 12 C-5 9 -5 9 -4.25 7.125 C-2.8475573 4.7408474 -1.44238274 2.36026267 0 0 Z " fill="#F72F14" transform="translate(38,37)"/>
<path d="M0 0 C0.33 0.99 0.66 1.98 1 3 C1.99 3.33 2.98 3.66 4 4 C5.65049717 8.43028188 6.22973141 12.29050618 6 17 C3.87953208 13.46588679 3.46800711 10.05606165 3 6 C2.34 6 1.68 6 1 6 C0.67 4.02 0.34 2.04 0 0 Z " fill="#E82B14" transform="translate(287,22)"/>
<path d="M0 0 C0.4025937 3.52269485 0.13372795 4.79940808 -1.875 7.8125 C-2.57625 8.534375 -3.2775 9.25625 -4 10 C-4.66 10 -5.32 10 -6 10 C-5.55090939 8.51800098 -5.09043436 7.03944764 -4.625 5.5625 C-4.36976563 4.73878906 -4.11453125 3.91507813 -3.8515625 3.06640625 C-2.98795614 0.97077431 -2.43893676 0 0 0 Z " fill="#C9271C" transform="translate(307,6)"/>
<path d="M0 0 C0.99 0 1.98 0 3 0 C3.375 7.5 3.375 7.5 0 12 C0 8.04 0 4.08 0 0 Z " fill="#D22A17" transform="translate(312,10)"/>
<path d="M0 0 C2 2 2 2 2.1953125 5.6953125 C2.182009 7.17200108 2.15814835 8.64862358 2.125 10.125 C2.11597656 10.87910156 2.10695312 11.63320313 2.09765625 12.41015625 C2.0740687 14.27357254 2.03819719 16.13682593 2 18 C1.67 18 1.34 18 1 18 C1 13.71 1 9.42 1 5 C0.34 5 -0.32 5 -1 5 C-0.67 3.35 -0.34 1.7 0 0 Z " fill="#E5290D" transform="translate(40,36)"/>
<path d="M0 0 C1.25009054 2.50018108 0.86733449 3.33935278 0.1875 6 C0.01605469 6.70125 -0.15539063 7.4025 -0.33203125 8.125 C-1 10 -1 10 -3 12 C-3.2954439 6.97745369 -2.98514628 4.10457614 0 0 Z " fill="#C92614" transform="translate(64,10)"/>
<path d="M0 0 C3.80984844 2.77079887 4.06840752 6.62868145 5 11 C4.34 11 3.68 11 3 11 C0 4.5 0 4.5 0 0 Z " fill="#B52417" transform="translate(312,57)"/>
<path d="M0 0 C0 1.98 0 3.96 0 6 C-2.475 5.01 -2.475 5.01 -5 4 C-5 3.01 -5 2.02 -5 1 C-2 0 -2 0 0 0 Z " fill="#2B595C" transform="translate(325,30)"/>
<path d="M0 0 C1.21386936 3.64160808 0.6674695 4.33165469 -0.9375 7.6875 C-1.31777344 8.49574219 -1.69804687 9.30398437 -2.08984375 10.13671875 C-2.39019531 10.75160156 -2.69054687 11.36648437 -3 12 C-3.33 12 -3.66 12 -4 12 C-4.49230769 4.61538462 -4.49230769 4.61538462 -2 1.5 C-1.34 1.005 -0.68 0.51 0 0 Z " fill="#C52B21" transform="translate(311,22)"/>
<path d="M0 0 C2.64 0 5.28 0 8 0 C8.66 1.65 9.32 3.3 10 5 C9.01 4.34 8.02 3.68 7 3 C4.66800612 2.92094936 2.33167378 2.91201231 0 3 C0 2.01 0 1.02 0 0 Z " fill="#C82F1D" transform="translate(74,15)"/>
<path d="M0 0 C0.66 0 1.32 0 2 0 C2.33 0.99 2.66 1.98 3 3 C5.01508358 3.73323796 5.01508358 3.73323796 7 4 C7 4.66 7 5.32 7 6 C5.68 5.67 4.36 5.34 3 5 C3 5.66 3 6.32 3 7 C2.34 7 1.68 7 1 7 C0.67 4.69 0.34 2.38 0 0 Z " fill="#D92D22" transform="translate(21,62)"/>
<path d="M0 0 C1.125 3.75 1.125 3.75 0 6 C0.66 6 1.32 6 2 6 C1.625 7.9375 1.625 7.9375 1 10 C0.01 10.495 0.01 10.495 -1 11 C-1.0270043 9.54176788 -1.04639787 8.08339325 -1.0625 6.625 C-1.07410156 5.81289063 -1.08570312 5.00078125 -1.09765625 4.1640625 C-1 2 -1 2 0 0 Z " fill="#EE2910" transform="translate(32,26)"/>
<path d="M0 0 C0.66 1.32 1.32 2.64 2 4 C2.99 4 3.98 4 5 4 C5.33 5.32 5.66 6.64 6 8 C3.5625 7.375 3.5625 7.375 1 6 C0.1875 2.875 0.1875 2.875 0 0 Z " fill="#E82910" transform="translate(305,68)"/>
<path d="M0 0 C2.625 0.375 2.625 0.375 5 1 C5 1.66 5 2.32 5 3 C6.32 3.33 7.64 3.66 9 4 C7.02 4 5.04 4 3 4 C3 3.34 3 2.68 3 2 C1.35 2 -0.3 2 -2 2 C-1.34 1.34 -0.68 0.68 0 0 Z " fill="#D62719" transform="translate(226,58)"/>
<path d="M0 0 C0.99 0 1.98 0 3 0 C2.625 2.9375 2.625 2.9375 2 6 C1.01 6.495 1.01 6.495 0 7 C-0.38133299 5.0085944 -0.71325582 3.00720923 -1 1 C-0.67 0.67 -0.34 0.34 0 0 Z " fill="#DB2919" transform="translate(90,54)"/>
<path d="M0 0 C1.125 1.6875 1.125 1.6875 2 4 C1.3125 6.6875 1.3125 6.6875 0 9 C-0.99 9.33 -1.98 9.66 -3 10 C-3 9.01 -3 8.02 -3 7 C-2.34 7 -1.68 7 -1 7 C-0.67 4.69 -0.34 2.38 0 0 Z " fill="#EB2B08" transform="translate(301,16)"/>
<path d="M0 0 C0.66 0.33 1.32 0.66 2 1 C1.34 4.3 0.68 7.6 0 11 C-0.66 11 -1.32 11 -2 11 C-1.34 7.37 -0.68 3.74 0 0 Z " fill="#B02A1E" transform="translate(35,5)"/>
<path d="M0 0 C0.33 0.66 0.66 1.32 1 2 C1.66 2 2.32 2 3 2 C2.67 3.32 2.34 4.64 2 6 C0.68 5.67 -0.64 5.34 -2 5 C-2 4.01 -2 3.02 -2 2 C-1.34 2 -0.68 2 0 2 C0 1.34 0 0.68 0 0 Z " fill="#607A87" transform="translate(322,10)"/>
<path d="M0 0 C2.475 0.495 2.475 0.495 5 1 C4.34 2.32 3.68 3.64 3 5 C2.01 5 1.02 5 0 5 C0 3.35 0 1.7 0 0 Z " fill="#F12B07" transform="translate(69,7)"/>
<path d="M0 0 C0.99 0 1.98 0 3 0 C2.67 3.3 2.34 6.6 2 10 C1.67 10 1.34 10 1 10 C0.67 6.7 0.34 3.4 0 0 Z " fill="#C11B0F" transform="translate(39,54)"/>
<path d="" fill="#000000" transform="translate(0,0)"/>
<path d="" fill="#000000" transform="translate(0,0)"/>
</svg>
